<?xml version="1.0" encoding="UTF-8"?>
<svg xmlns="http://www.w3.org/2000/svg" xmlns:xlink="http://www.w3.org/1999/xlink" viewBox="0 0 1127.85 769.07">
  <defs>
    <style>
      .cls-1, .cls-2, .cls-3, .cls-4, .cls-5, .cls-6, .cls-7, .cls-8, .cls-9, .cls-10, .cls-11, .cls-12, .cls-13, .cls-14, .cls-15, .cls-16 {
        stroke-width: 0px;
      }

      .cls-1, .cls-3, .cls-4 {
        fill: #ffe0bb;
      }

      .cls-1, .cls-17 {
        opacity: .65;
      }

      .cls-18 {
        clip-path: url(#clippath);
      }

      .cls-2 {
        fill: none;
      }

      .cls-19 {
        opacity: .03;
      }

      .cls-20 {
        opacity: .08;
      }

      .cls-21, .cls-4 {
        opacity: .1;
      }

      .cls-22 {
        mix-blend-mode: overlay;
        opacity: .2;
      }

      .cls-23, .cls-9 {
        fill: #41a7af;
      }

      .cls-24 {
        clip-path: url(#clippath-1);
      }

      .cls-3 {
        opacity: .4;
      }

      .cls-25 {
        opacity: .25;
      }

      .cls-26 {
        opacity: .7;
      }

      .cls-27 {
        isolation: isolate;
      }

      .cls-28 {
        opacity: 0;
      }

      .cls-5 {
        fill: #f7e9d0;
      }

      .cls-6 {
        fill: #4d2f49;
      }

      .cls-7 {
        fill: #274251;
      }

      .cls-8 {
        fill: #4591cb;
      }

      .cls-10 {
        fill: #101d30;
      }

      .cls-11 {
        fill: #d89898;
      }

      .cls-12 {
        fill: #a05a40;
      }

      .cls-13 {
        fill: #ffe9ca;
      }

      .cls-14 {
        fill: #faf6f7;
      }

      .cls-15 {
        fill: #eab5b5;
      }

      .cls-16 {
        fill: #66c6bf;
      }
    </style>
    <clipPath id="clippath">
      <path class="cls-2" d="m116.97,3.12h931.74s141.42,137.88,16.55,360.85c-124.87,222.98-365.49,214.34-365.49,214.34,0,0-1.02,91.43,139.21,122.48s288.88,51.75,288.88,51.75l-.07,16.53-948.07-7.99s-142.54-248.47,103.37-323.2S173.25,121.11,173.25,121.11c0,0-107.37,10.14-155.24-55.49S32.82,0,32.82,0l84.15,3.12Z"/>
    </clipPath>
    <clipPath id="clippath-1">
      <path class="cls-9" d="m962.22,313.27c2.52-1.24,4.95-1.74,7.07-3.63,1.72-1.53,2.01-1.1,3.84-1.84,2.02-.82,2.81-2.35,4.58-3.56s3.88-.89,5.68-2.02c1.07-.67,1.9-1.86,2.92-2.59,2.05-1.46,4.61-2.48,6.77-3.83,1.99-1.24,3.98-1.71,6.02-2.59,2.76-1.19,5.06-3.36,7.77-4.69,4.56-2.24,8.89-4.6,13.57-6.72,2.81-1.27,5.39-2.97,7.79-4.88,2.21-1.76,4.53-3.21,6.77-4.86,4.11-3.01,8.48-5.96,12.73-8.81s7.9-6.39,12.52-8.88c2.29-1.23,3.78-3.01,5.85-4.44,2.03-1.41,4.29-2.1,5.92-4.12,1.59-1.96,2-2.05,4.52-3.11s4.63-2.76,7.06-3.96c1.55-.77,3.18-.74,4.85-1.16,1.85-.46,3.6-1.14,5.42-1.47s4.06-.44,5.73-1.02c1.12-.39,1.61-1.3,2.63-1.93,1.36-.83,3.01-1.3,4.47-1.93,3.57-1.56,7.27-2.9,10.85-4.59,3.85-1.81,7.65-4.39,11.67-5.85,1.33-.48,3.57-1.54,4.85-1.06,1.6.6,3.4,3,4.83,3.98,4.61,3.14,8.68,5.61,10.71,10.97.85,2.24,1.27,4.45,2.3,6.65s1.9,5.05,2.36,7.48c1.32,6.98,2.12,14.08,3.37,21.09,1.41,7.89,3.15,15.76,4.62,23.64.34,1.84.16,3.9.54,5.81.54,2.77,1.35,5.53,1.45,8.37.13,3.84-.07,7.77-.07,11.6v23.54c0,6.24-.71,12.34-.95,18.54-.09,2.46-1.32,4.4-1.77,6.78-.38,2,.18,4.06-.36,6.02-.61,2.21-2.54,5.2-3.91,7.06-2.2,2.99-4.81,6.32-7.33,9.04-2,2.16-4.2,4.68-6.66,6.25-1.72,1.1-3.62,1.73-5.38,2.72-1.53.87-2.35,1.97-3.71,2.91-2.95,2.04-7.25,2.79-10.58,3.88-2.79.92-5.7,2.23-8.58,2.75-8.36,1.52-16.9,2.41-25.23,3.52-2.94.39-5.71.36-8.64.4-7.34.12-14.47,2.06-21.86,2.01-23.62-.17-47.09-.1-70.59-2.69-4.31-.48-8.97-.88-13.07-2.25-7.4-2.47-14.76-4.37-22.33-5.97-9.86-2.08-19.15-6.38-28.94-8.77-5.91-1.44-11.64-5.3-16.96-8.12-3.53-1.87-6.24-4.29-9.38-6.62-3.98-2.94-6.92-6.97-9.55-11.06-.61-.96-1.19-1.99-1.89-2.88-2.76-3.51-3.04-8.68-4.87-12.81-.88-2-1.26-3.55-.6-5.71,3.99-12.92,19.62-14.13,30.95-14.74,4.06-.22,8.08-.4,12.04-1.43,6.31-1.64,12.13-4.73,18.05-7.38,3.59-1.6,7.22-2.96,10.56-5.06s6.19-4.33,9.59-6.01Z"/>
    </clipPath>
  </defs>
  <g class="cls-27">
    <g id="Layer_2" data-name="Layer 2">
      <g id="Layer_36" data-name="Layer 36">
        <g class="cls-26">
          <g class="cls-18">
            <g>
              <rect class="cls-16" x="-242.62" width="1373.51" height="761.08"/>
              <rect class="cls-9" x="-252.9" y="276" width="602" height="415"/>
              <g class="cls-22">
                <path class="cls-6" d="m394.25,289.3c-1.94.51-3.94.57-5.81,1.08s-3.6,1.47-5.49,2.17c-6.26,2.33-12.73,4.09-19.04,6.28s-12.47,4.83-18.65,7.32c-1.31.53-2.78.66-4.07,1.2s-2.42,1.48-3.69,2.1c-1.31.63-2.66.97-3.87,1.55s-2.37,1.42-3.87,1.54c-2.56.2-5.23.09-7.82.51s-5.09,1.34-7.59,1.97c-2.97.75-6.15,1.24-9.23,2.09s-6.07,2.07-9.08,2.67c-1.46.29-3.01-.02-4.51.1s-2.9.66-4.37,1.01c-1.65.4-3.38.07-5.04.16s-3.29.57-4.93.96c-3.04.72-6.41.44-9.77.4s-6.66.16-9.78.16c-6.33,0-12.66-.39-19-.37s-12.67.43-19,.38c-1.76-.02-3.42-.14-5.05.14s-3.22.98-4.98.96c-.8,0-1.6-.42-2.39-.42s-1.6.42-2.4.41c-1.2-.01-2.32-.25-3.38-.03s-2.09.9-3.23,1.06c-1.53.21-3.13-.29-4.72-.37s-3.14.28-4.66.56c-1.72.32-3.43.4-5.06.83s-3.21,1.2-4.98,1.27c-1.76.07-3.59.14-5.37.64s-3.43,1.45-5.19,1.65c-1.6.19-3.21-.08-4.77.09s-3.06.78-4.65,1.07c-3.46.63-7.02.62-10.5,1.11s-6.8,1.43-10.19,2.37c.85.89,1.82,1.02,2.95.94s2.27-.72,3.3-.53c1.21.22,2.18.89,3.25,1.1s2.16-.03,3.41.03c1.11.06,2.19.66,3.32.91s2.33.18,3.4.51c1.12.35,2.11.96,3.2,1.18s2.29.06,3.39.48c2.41.91,4.69,2.12,7.11,2.92s4.99,1.2,7.41,2.07c.99.36,1.72,1.1,2.59,1.43s1.89.24,2.9.49c.8.2,1.3.99,1.95,1.41s1.48.47,2.27.68c.59.15,1.15.53,1.75.52s1.29-.39,1.86-.14c.6.27.9,1.01,1.41,1.39s1.23.39,1.84.65c.86.37,1.7,1.1,2.68,1.42s2.1.24,2.99.55c1.23.43,2.35,1.16,3.6,1.5s2.61.26,3.84.67c1.3.43,2.3,1.32,3.42,1.89s2.43.84,3.59,1.52c1.5.88,2.93,1.91,4.55,2.55s3.43.88,4.96,1.68c1.64.86,3.05,2.14,4.63,3.14s3.34,1.75,4.77,2.92c1.06.87,1.92,1.87,3.04,2.5s2.46.87,3.61,1.63c2.23,1.47,4.29,3.26,6.62,4.62s4.89,2.25,7.31,3.4c4.86,2.29,9.43,5.61,14.34,8.17s10.11,4.34,15.6,5.07c2.87.38,5.68,1.17,8.54,1.59s5.78.46,8.63.99c1.61.3,3.18.99,4.83,1.27s3.34.15,4.98.46c1.71.33,3.38.74,5.1.76s3.47-.36,5.17.05c1.3.31,2.52.73,3.77.72s2.58-.46,3.86-.23c1.3.23,2.3.91,3.38,1.13s2.21-.03,3.55,0c1.33.03,2.5.71,3.73.98s2.5.13,3.83.19c1.43.06,2.92.54,4.42.56s2.99-.42,4.41-.56c2.27-.22,4.59-.35,6.85-.86s4.47-1.37,6.77-1.42c2.53-.06,5.14,0,7.69-.44s5.03-1.37,7.53-1.75c4.65-.7,9.34-1.41,14-2.34s9.25-2.1,14.03-2.1c2.17,0,4.35.37,6.53.35s4.36-.45,6.53-.37c1.44.05,2.75.74,4.1,1.08s2.79.33,4.19.63c1.58.34,2.92.95,4.32,1.21s2.9.18,4.43.76c1.17.44,2.29,1.1,3.52,1.36s2.59.11,3.76.53c1.23.44,2.26,1.37,3.45,1.91s2.51.68,3.76,1.14c1.35.49,2.33,1.59,3.5,2.26s2.52.93,3.93,1.25c1.36.3,2.86,1.02,4.42,1.41s3.27.49,4.5,1.15c1.19.63,2,1.84,3.07,2.68s2.33,1.3,3.59,1.86c1.25.56,2.37,1.45,3.64,1.97s2.72.69,3.93,1.33c2.58,1.37,4.81,3.32,7.32,4.73s5.25,2.29,8.14,3c2.71.67,5.22,2.03,7.85,2.98s5.39,1.49,8.11,2.11c1.31.3,2.58.89,3.92,1.06s2.76-.07,4.06.21c.75.16,1.01.69,1.42.87.38.17.94,0,1.64.31,1.01.45,1.75,1.07,2.61,1.23s1.84-.13,2.91.11c3.47.76,6.84,2,10.32,2.78s6.79,1.28,10.31,1.82c1.77-36.68.42-36.71.42-73.43s26.67-48.42-.35-73.29c-29.35-27.02-39.75-.36-79.64-.36-39.89,0-39.89.41-79.79.42-.06.02-.17-.38-.23-.36s0,.43-.06.45Z"/>
              </g>
              <g class="cls-21">
                <path class="cls-12" d="m259.1,257.53c-2.57-.24-5.02,0-7.52-.39-2.35-.37-4.52-.47-6.98-.47-7.22.01-15-.59-22.2.21-3.42.38-6.34.78-9.79.73-3.03-.05-5.4.74-8.35.99-1.9.16-3.88-.3-5.78-.1-3.04.32-5.23,1-8.39.98-1.62,0-3.24,0-4.86,0-3.92,0-6.85.59-10.64.99-1.99.21-4.1-.13-6.11-.07-2.44.07-4.24.88-6.62.99-2.33.1-4.27.34-6.5.7-2.37.38-4.74.08-7.17.17-2.47.1-4.47.95-6.97,1-2.11.04-4.25-.21-6.35.06-2.55.33-4.6.88-7.23.86-2.44-.02-5.37-.3-7.76.08-2.56.41-4.3.87-6.96.86-2.33-.02-4.66,0-6.98,0-1.93,0-3.93.12-5.85.02-2.06-.1-2.86-.86-4.89-.98-4.22-.26-8.85.63-13.01-.06-5.3-.88-10.17-.86-15.71-.86-9.16,0-18.32-.08-27.47.02-5.9.06-11.58-.96-17.51-.96-4.72,0-10.04.59-14.66-.21-2.42-.42-4.13-.63-6.62-.69-2.7-.07-5.01-.93-7.68-1-3.4-.09-7.02.38-10.41.07-2.45-.22-4.41-1.01-6.93-.98-5.17.05-9.77-.96-14.82-.94-2.22.01-4.52.14-6.73.03-2.96-.14-5.5-1-8.48-.97-3.75.04-8.3.55-11.98.05-4.6-.63-9.35-1.58-14.03-1.95-5.33-.42-10.55-.96-15.92-.92-2.39.02-4.49-.07-6.78-.68-2.87-.76-5.12-.95-7.97-1.4-8.3-1.33-16.43-2.33-24.65-4.37-11.06-2.75-22.26-4.96-33.47-7.2-4.67-.93-9.45-2.05-14.22-2.78-.68-.1-1.37-.22-2.05-.35h-22.31c-.94.52-1.77,1.13-2.43,1.84-1.4,1.51-2.18,3.9-1.57,5.79.42,1.32,2.56,5.66,4.28,5.4l-1.11-2.82c1.57,1.44,4.66,2.41,6.64,3.52,1.81,1.02,3.83,1.76,5.86,2.37,3.11.94,4.68,1.94,7.45,3.29,2.85,1.39,6.3,2.09,9.27,3.25,4.41,1.73,8.67,3.8,13,5.63,2.55,1.08,4.88,1.94,7.53,2.82,2.1.7,3.68,2.14,5.78,2.63,8.5,1.98,17.13,3.79,25.85,5.37,2,.36,3.87-.06,5.84.18,1.92.23,3.93.65,5.86.95,4.23.65,8.38,1.72,12.66,2.61,2.31.48,5.26,1.1,7.59,1.21,2.27.11,4.5-.31,6.73.18,1.68.37,3.3,1.32,5.03,1.58,2.7.42,5.51-.22,8.22.03,1.94.18,3.94.83,5.86,1.22,2.32.47,4.12.35,6.37.66,2.16.29,3.86.95,6.14,1,2.96.06,4.69.44,7.45.95,9.98,1.86,20.4,1.32,30.33,3.25,8.92,1.74,17.79,3.28,26.77,5.06,10.23,2.02,20.25,3.9,30.26,7.04,4.41,1.39,8.34,3.63,12.83,4.46,4.43.81,8.93,2.58,13.16,3.9,4.22,1.32,8.52,1.67,12.78,2.82,4.6,1.24,8.8,2.51,13.64,2.56,4.03.04,8.37,1.13,12.25,1.85,5.19.97,9.92.97,15.33.97h12.38c4.38,0,9.33.55,13.61-.21,4.03-.71,8.06-1.13,12.03.37,1.96.74,3.24,2.92,4.93,3.99,2.46,1.55,4.55,1.06,7.23,1.43.86.12,1.65.75,2.47.83,1.73.17,2.16-.55,3.67-.69,2.19-.2,3.99-.42,6.14-.82,1.86-.34,3.63-.14,5.5-.64,2.55-.69,4.35-1.17,6.92-1.63,2.05-.36,4.17-1.18,6.16-1.69,2.36-.61,4.26-.72,6.67-1.15,1.78-.32,3.47-1.22,5.22-1.58,2.35-.48,4.62-.59,6.98-1.24,1.9-.52,3.61-1.18,5.52-1.64,2.74-.67,5.03-2.01,7.83-2.63.8-.18,1.71-.1,2.47-.39.88-.34,1.51-1.25,2.47-1.54,1.29-.39,2.44.07,3.68-.24,1.19-.29,2.11-.98,3.25-1.36,1.94-.64,4.12-.78,6.12-1.36,2.26-.65,4.38-1.45,6.64-2.1,1.27-.37,2.5-.78,3.73-1.22v-46.53Z"/>
              </g>
              <g class="cls-21">
                <path class="cls-12" d="m129.42,369.14c-.01,1.08-.5,2.08-.62,3.09s.11,2.11-.02,3.14-.65,2-.69,3.07c-.02.57.27,1.16.13,1.67s-.7.94-.85,1.46.12,1.11.07,1.67c-.06.72-.43,1.26-.43,1.72,0,.67.24,1.28-.33,1.68-.33.23-1.01.08-1.76.31-.96.29-1.77.79-2.61.86-.93.07-1.87-.3-2.76-.12-.81.16-1.48.82-2.36,1.39-.62.4-1.34.39-1.72.69-.51.42-.48,1.03-.62,1.67-.1.45-.51,1-.46,1.76s.68,1.13,1.03,1.57c.4.5.62,1.15,1.06,1.56s1.17.73,1.25,1.42c.13,1.16-.96,1.88-2.11,2.54-.93.53-1.96,1.28-3.09,1.54-1.37.32-2.72.06-3.46.09-.57.02-1.12.47-1.71.55s-1.23-.2-1.8-.07-1.02.69-1.56.88c-.69.24-1.47.24-2.03.64s-.84,1.18-1.36,1.66-1.29.61-1.86,1.04c-.43.32-.58.89-.9,1.11-.44.3-1.06.34-1.2.77-.11.33.27.78.4,1.38.08.41-.09,1.01.16,1.49.22.42.83.66,1.08,1.07.28.46.2,1.09.4,1.46.62,1.15,1.55,1.71,2.22,2.28.85.72,1.61,1.41,2.73,1.57.91.13,1.98-.26,3.21-.27,1,0,2,.41,3.01.42s2.01-.38,3.01-.38,2.01.4,3.01.38c.62-.01,1.07-.49,1.51-.6.54-.13,1.1.08,1.61-.08.44-.14.83-.67,1.43-.75.53-.07,1.14.3,1.73.3.57,0,1.17-.36,1.73-.3.6.06,1.11.55,1.63.65,1.21.24,2.35.16,3.17.57,1.01.5,1.5,1.45,2.08,2.4.48.78,1.2,1.61,1.48,2.84.12.54-.25,1.12-.27,1.67s.33,1.11.3,1.66-.45,1.11-.38,1.65c.09.67.62,1.24.76,1.86s-.09,1.35.03,2,.6,1.22.62,1.91c.03,1.05-.28,2.11-.27,3.11.01,1.1.3,2.22-.1,3.12-.38.85-1.32,1.33-2.43,1.89-.5.25-.86.79-1.37.92s-1.16-.13-1.67.02-.83.71-1.29,1.01-1.13.35-1.45.73c-.34.4-.29,1.05-.53,1.53-.22.44-.79.75-1,1.27-.38.95-.34,2.16-.73,3.21s-1.17,1.89-1.73,2.77c-.6.94-1.1,2.01-2.11,2.46-.43.19-.98-.05-1.4.05s-.8.57-1.24.64-.95-.25-1.4-.15c-.58.14-1.02.72-1.58.94s-1.25.07-1.81.29-1.01.79-1.59.92c-.93.21-1.93-.15-2.88-.16s-1.91.32-2.86.32-1.95-.35-2.88-.11-1.66.87-2.5,1.14-1.84.18-2.7.47-1.56.95-2.45,1.23c-1.04.32-2.16.34-3.11.78s-1.74,1.28-2.7,1.75-2.06.56-3.06.97c-.23.1-.33.53-.54.58-.23.05-.55-.3-.77-.23-.2.06-.23.51-.44.65-.24.17-.74.18-.94.51-.18.29-.02.82-.21,1.1-.21.31-.7.27-.99.42s-.44.58-.71.61-.63-.35-.92-.29c-.26.05-.37.51-.63.69-.3.21-.79.19-.95.45-.18.29.05.79-.09,1.08s-.62.35-.85.6c-.36.39-.53,1-.97,1.28s-1.12.2-1.55.49-.55.91-.9,1.33c-.41.5-1.08.75-1.41,1.25s-.35,1.25-.72,1.75c-.35.47-1.04.67-1.51,1.13-1.06,1.03-1.73,2.39-2.64,3.5s-2.12,2.04-2.98,3.21-1.39,2.58-2.28,3.75c-.41.53-1.19.78-1.7,1.27s-.74,1.24-1.25,1.7-1.32.66-1.78,1.14c-.5.52-.62,1.19-.97,1.48-.49.4-1.1.29-1.68.49-.43.16-.83.68-1.53.87-.32.09-.74-.17-1-.04-.27.14-.33.65-.59.82-.25.16-.7-.03-.99.12-.36.19-.55.68-.88.77-.35.09-.79-.25-1.16-.19-.34.06-.61.51-1,.61-.53.13-1.14-.12-1.66.02s-.93.67-1.45.81-1.13-.13-1.66,0c-.65.15-1.21.65-1.84.79s-1.41-.06-1.99.23-.84.96-1.3,1.51c-.33.39-.86.46-.96.71-.15.36.24.73.24,1.18,0,.29-.41.61-.48,1.08-.08.58.18,1.2.03,1.73s-.71.97-.84,1.52c-.12.52.18,1.11.17,1.71-.01.49-.37,1.05-.32,1.61.05.53.51,1.05.53,1.58.02.57-.4,1.07-.51,1.56-.27,1.12-.62,2.16-1.49,2.79s-2.04.66-3.09.97-2.09.93-3.04,1.12c-1.44.3-2.91.13-4.31.3s-2.81.7-4.25.78-2.84-.3-4.31-.29c-2.61,0-5.27.49-7.95.55s-5.32-.32-7.95-.43-5.39.04-7.95-.47c-.46-.09-.86-.54-1.3-.57s-.91.37-1.37.38-.88-.39-1.35-.4c-.69-.01-1.38.29-2.01.16s-1.2-.7-1.84-.85-1.33.12-2.01.06c-1.23-.1-2.4-.51-3.57-.52s-2.41.41-3.59.34-2.28-.62-3.47-.94c-2.08-.55-4.38-.31-6.69-.25s-4.5-.09-6.71.21c-2.32.31-4.53,1.06-6.59,1.27-1.66.17-3.4.12-5.06.56s-3.16,1.32-4.78,1.8-3.39.55-5.02.87c-.63.12-1.17.61-1.76.68s-1.27-.25-1.88-.16-1.1.6-1.72.76c-.82.22-1.78.11-2.64.4s-1.55.96-2.38,1.22-1.82.11-2.65.24c-.79.13-1.43.58-2.08.62-.71.04-1.43-.33-2.16-.22-.63.09-1.2.63-1.97.89-.69.24-1.51.08-2.21.3s-1.28.82-1.98,1.03-1.52.03-2.22.23c-1.56.45-3.07,1.25-4.68,1.65s-3.31.39-4.9.81-3.08,1.27-4.62,1.81c-1.62.56-3.37.74-5,1.29s-3.13,1.47-4.76,2.01-3.39.68-5.03,1.19c-.7.22-1.26.86-1.95,1.14s-1.53.22-2.19.54-1.14,1.03-1.79,1.38-1.6.32-2.36.63-1.35.96-2.08,1.29c-.76.34-1.69.37-2.3.83-.47.36-.68,1.09-1.14,1.56s-1.16.66-1.56,1.14c-.42.51-.5,1.26-.86,1.73-.53.68-1.3.99-1.76,1.5-.52.57-.75,1.36-1.34,1.87-.51.45-1.34.59-2.02,1.11-1.07.81-1.93,1.83-3.03,2.37-1.16.57-2.48.62-3.73.9s-2.41.81-3.74.84c-.75.01-1.52-.29-2.23-.15s-1.36.71-2.08.86-1.48-.12-2.23-.07c-.58.04-1.09.45-1.59.45-.55,0-1.09-.39-1.62-.33-.5.05-.93.53-1.5.69-1.29.36-2.67.3-3.95.6s-2.5.98-3.79,1.24-2.67.1-3.98.31c-1.55.25-2.82,1.09-4.1,1.71s-2.76,1.13-3.92,2.08-1.91,2.23-2.98,3.32-2.34,1.9-3.42,2.92-2.05,2.34-3.35,3-2.79.63-4.42.52-3.09,0-4.5-.23c-1.52-.24-2.98-.81-4.46-.59-1.32.2-2.52,1.06-3.95,2.09s-2.93,1.83-4.18,3.07-2.11,2.76-3.28,4.03-2.65,2.31-3.83,3.5c-1.85,1.86-3.73,3.82-6.02,5.29s-4.81,2.37-7.21,3.54-4.77,2.63-7.15,3.64c-.49.21-1.11-.02-1.6.1s-.92.62-1.41.73-1.11-.16-1.6,0c-.36.12-.49.67-.79.9s-.82.15-1.12.37-.42.76-.79.89c-.55.19-1.28-.06-1.95.06-.61.11-1.19.6-1.81.7-.66.1-1.37-.19-1.94-.07-.49.11-1.17.6-1.97.66-.66.05-1.39-.33-2.06-.33-.78,0-1.55.34-2.07.22-1.66-.37-2.22-1.48-2.54-2.58s-.55-2.43-.31-3.77.96-2.64.98-3.74c.02-1.35-.53-2.73-.76-4.15s-.14-2.84-.47-4.2-1.09-2.68-1.39-3.99c-.72-3.09-1.16-6.22-1.96-9.24s-1.96-6.01-2.52-9.1-.51-6.21-.5-9.41c0-.99-.42-1.97-.42-2.95s.39-1.96.42-2.95-.32-1.99-.21-2.97.68-1.78.9-2.69.07-1.91.3-2.81.83-1.73.97-2.66c.34-2.25.38-4.66.93-6.99s1.54-4.45,2.27-6.68,1.23-4.62,2.22-6.69c1.55-3.26,3.73-6.12,5.76-9.02s3.98-5.94,6.35-8.62,5.13-4.97,7.63-7.52c2.37-2.41,4.77-4.82,7.6-6.72s5.97-3.21,8.97-4.78,5.93-3.42,8.91-4.87c4.24-2.07,8.65-3.71,12.89-5.69s8.35-4.32,12.6-6.3,8.66-3.63,12.88-5.71c2.55-1.26,4.85-3.04,7.35-4.51s5.14-2.59,7.64-3.98,4.93-3.07,7.57-4.13c1.58-.63,3.3-.89,4.87-1.52s2.99-1.64,4.57-2.27,3.29-.88,4.87-1.51,2.93-1.66,4.45-2.35,3.2-1.05,4.71-1.76,2.86-1.79,4.39-2.45c.43-.19,1.02.05,1.47-.07s.82-.61,1.27-.73,1.05.13,1.47-.05c.67-.28,1.08-.98,1.66-1.33s1.38-.4,1.98-.75,1.03-1.02,1.71-1.26c1.17-.42,2.44-.52,3.54-1.02s2.03-1.41,3.13-1.95,2.35-.7,3.48-1.2c3.62-1.62,7.08-3.64,10.72-5.28s7.44-2.85,11.11-4.36,7.27-3.32,11.02-4.59c1.35-.46,2.79-.7,4.06-1.36s2.32-1.72,3.59-2.36,2.72-.85,4.09-1.25c4.29-1.26,8.42-3.07,12.66-4.58s8.56-2.71,12.75-4.32,8.23-3.62,12.41-5.21c.34-.13,1.04.12,1.68-.02.51-.12.97-.63,1.49-.77.6-.16,1.3.04,1.67-.16.32-.17.38-.7.64-.89.28-.21.77-.09,1.05-.27s.39-.69.73-.81c.64-.21,1.41.02,2.09-.12s1.27-.65,1.94-.77,1.43.14,2.09-.03c.54-.14,1-.67,1.56-.83s1.23.05,1.77-.15.92-.8,1.4-1.07c1.49-.82,3.18-1.1,4.74-1.63s3.07-1.34,4.71-1.71,3.32-.28,4.98-.61c1.22-.24,2.36-.85,3.56-1.07s2.51-.07,3.7-.36,2.25-1.02,3.42-1.45c.73-.28,1.56-.07,2.27-.22s1.4-.65,2.14-.77,1.53.14,2.28-.06c3.08-.84,6.06-2.07,9.15-2.87s6.3-1.16,9.41-1.83,6.21-1.65,9.35-2.1c1.96-.28,3.95-.29,5.87-.72s3.77-1.25,5.71-1.58,3.92-.14,5.91-.13c1.44,0,2.92-.48,4.44-.57s2.99.23,4.47.21,3.05-.34,4.48-.09c.58.1,1.02.67,1.56.89s1.23.1,1.76.33.96.83,1.52.96c.45.11.95-.25,1.39-.24s.91.38,1.36.36.91-.42,1.36-.37c.54.06.97.57,1.47.71s1.12-.08,1.63.06.94.64,1.48.68c.78.05,1.59-.25,2.34-.14s1.45.65,2.21.78,1.56-.15,2.34-.05c.65.08,1.29.47,1.96.43s1.29-.5,1.95-.54,1.31.36,1.95.43,1.3-.19,1.91-.04,1.12.7,1.73.83,1.27-.17,1.9-.14c1.31.06,2.62.48,3.95.47s2.63-.44,3.95-.47,2.65.35,3.96.35"/>
              </g>
              <g class="cls-17">
                <path class="cls-5" d="m1115.95,163.53c-4.72,1.37-10.32,1.07-15.03.07-1.01-.21-2.02,0-3.03-.04-1.47-.06-2.79-.52-4.21-.82-2.23-.46-4.55-1.15-6.83-1.53-4.25-.71-8.25-1.52-12.61-1.51-.98,0-2.06.14-3.03.03-1.06-.13-1.84-.66-2.9-.83-2.14-.36-4.7.04-6.89.04-8.68-.02-17.62,4.44-26.27,1.44-4.45-1.54-8.75-4.84-13.61-5.3-1.08-.1-2.17.2-3.24-.03s-1.52-.82-2.68-.67c-1.08.14-1.91.66-3.02.75s-2.34-.05-3.49-.03c-4.18.07-8.55,1.65-12.66,2.34-1.88.32-3.73-.11-5.63.34-1.11.26-1.93.37-3.09.38-1.32.01-1.92.43-3.12.7-1.94.43-4.36.07-6.35.07s-3.63.03-5.53-.58c-1.78-.57-3.16-.98-5.04-.95-2.4.05-4.31-.79-6.76-.77-4.24.02-7.94.39-11.96,1.36s-7.67,2.14-11.47,3.21-7.81.79-11.91.79h-12.65c-4.58,0-9.54-.56-14.07-.03-2,.24-3.67.82-5.82.79-2.33-.03-4.65.28-6.89.75s-4.39,1.68-6.49,2.61c-2.3,1.03-4.63,2.62-6.91,3.48-2.49.93-5.27,1.36-7.87,1.59-.95.08-1.49.42-2.34.6-2.05.43-4.23.17-6.32.17-5.8-.01-11.53.5-17.31.73-2.7.11-5.16.8-7.89.81-3.16,0-6.08.36-9.21.7-4.72.52-9.4,1.68-13.74,3.85-1.43.72-2.59,1.94-4.17,2.3-.91.21-1.8.17-2.75.42-2.5.66-5.42.74-8.01,1.09-4.94.66-10.1,1.02-14.97,2.34-1.75.48-12.43,4.78-9.97,6.95,1.57,1.38,4.3.48,6.1.69,2.61.31,5.01.68,7.66.79,5.3.22,10.03,2.63,15.06,3.75,2.65.59,4.66,1.16,7.03,2.43.94.51,1.59.37,2.45.68,1.34.48,2.15,1.35,3.64,1.61,1.91.33,3.66,1.17,5.55,1.53,2.11.41,4.79-.04,6.94-.04,2.47,0,4.47-.28,6.87-.7,1.4-.24,2.82.14,4.22-.03,1.3-.15,2.39-.75,3.71-.83,2.37-.16,4.8.09,7.18.05,2.51-.04,4.71-.79,7.3-.78,4.88,0,9.56.09,14.32.82,2.5.38,4.33,1.53,6.94,1.48,2.47-.05,4.59.78,7.08.76,2.1-.02,4.2,0,6.3,0,1.38,0,5.29-.8,4.99,1.14-.27,1.71-5.1,2.46-6.5,2.9-2.63.82-5.35.7-8.02,1.51-2.43.74-4.81.4-7.28.96-2.27.51-4.57.79-6.86,1.22-1,.19-1.68.66-2.76.72s-2.16-.18-3.22-.07c-1.28.13-2.41.73-3.7.85-1.4.12-2.79-.19-4.2.03-2.31.35-4.55,1.24-6.87,1.51-1.53.18-3.09-.2-4.63.02-1.38.2-2.46.86-3.77,1.28-5.34,1.71-10.89,1.59-16.15,3.6-3.15,1.21-6.42,2.23-9.53,3.42-1.49.57-2.74,1.66-4.17,2.38-1.16.59-2.69,1.09-3.32,2.33.31.78,3.81,1.38,4.69,1.51,2.74.41,5.96-.04,8.76-.04,2.5,0,5.2.32,7.66-.17,2.98-.59,6.07-1.28,9.1-1.38,5.14-.17,10.38-.11,15.52,0s10.25,1.67,15.34,2.91c2.73.67,5.33.96,8.13.93,2.62-.02,4.82.38,7.35.81,6.27,1.05,12.85-.84,19.04-.8,9.27.06,19.25.97,28.36-.6,4.08-.7,8.79-.31,12.94-.19,1.17.03,2,.42,3.09.62,1.16.21,2.29.09,3.47.34,2.66.55,5.47,1.27,8.2,1.38,2.42.1,4.96.28,7.33.72s4.68.57,7.18.75c1.83.13,3.47.94,5.18,1.4,1.06.28,1.98.14,3.05.15,2.09.02,4,.71,6.05.83,5.2.31,10.18,1.51,15.47,1.49,2.25,0,4.57.19,6.81.04,1.37-.09,2.67-.59,3.96-1.01,1.49-.49,2.85-.35,4.4-.72,3.79-.91,7.54-2.62,11.47-2.9,2.16-.15,4.07-.78,6.3-.76,2.09.02,4.19,0,6.28,0,2.43,0,4.2.19,6.53.96,1.99.66,3.58,1.73,5.54,2.29,2.09.59,4.19,1.27,6.3,1.92,1.43.44,2.92.69,4.34,1.16,1.78.59,3.15.44,5.07.73,1.69.26,3.12.6,4.84.62,1.26.01,2.39-.14,3.65.15,2,.46,3.59.62,5.72.6,2.43-.03,4.47.74,6.83.78,3.42.06,6.95.12,10.37.02,3.02-.09,5.82-.85,8.83-.81,2.5.04,4.69-.54,7.11-.81.89-.1,1.95.3,2.82.13,1.39-.27,2.17-1.54,3.13-2.43.87-.82,1.14-1.11,2.22-1.51,1.5-.55,2.72-.27,3.73-1.65,2.4-3.26,1.67-8.8,1.67-12.54,0-5.18.21-11.07-1.73-15.85-1.15-2.84-2.31-2.96-5.55-2.88s-6.36-.76-9.41-1.36c-3.44-.67-7.44-.84-10.96-.95-2.41-.08-4.51.37-6.87.72-3.88.58-7.61.59-11.3,2.37-1.94.93-3.81,2.2-5.68,3.23-2.66,1.46-4.84,3.8-7.66,5.04-2.14.94-4.45,1.4-6.7,1.87-2.51.53-2.95.38-5.31-.21-1.89-.47-4.36-.16-6.18-.69-1.14-.33-1.44-1-2.45-1.61-1.11-.68-2.42-.77-3.52-1.47-2.06-1.3-3.71-3.66-5.55-5.25-1.02-.89-4.38-3.27-4.32-4.76.08-1.98,2.82-2.25,4.16-2.3,3.97-.15,7.9.69,11.87.76,2.09.04,3.75.8,5.89.78,3.85-.03,7.7,0,11.55,0,2.54,0,4.56.15,6.95-.77,2.43-.94,5.26-1.79,7.8-2.31,2.16-.45,4.41-1.46,6.71-1.53,2.25-.08,4.75-.34,6.94-.91,4.3-1.13,9.23-.6,13.77-.6s9.09.2,13.61.02c2.66-.11,2.52-1.71,3.05-4.02.6-2.63.26-5.47.77-8.17.91-4.82-.03-9.96-.6-14.64-.68-5.63-6.89-3.12-10.72-3.07"/>
              </g>
              <path class="cls-14" d="m555.04,123.47c-4.79-1.52-9.32-1.53-14.38-1.53-1,0-2.2.17-3.19.04-1.24-.16-2.31-.84-3.57-.86-1.39-.02-2.6.75-3.97.87-1.29.11-2,0-3.2.51-2.18.94-4.44,1.24-6.53,2.49-.92.55-1.58,1.38-2.64,1.61-1.34.29-2.89-.25-4.26,0-3.62.68-10.31,5.64-5.32,8.83,2.51,1.6,4.15,1.39,6.88,1.79.96.14,1.69.66,2.63.84,1.29.25,3.02-.03,4.32-.05,4.61-.06,9.03,2.14,13.69,2.3,1.17.04,1.76.34,2.85.6,1.35.32,2.5-.01,3.83.13s2.35.76,3.66.83c1.39.07,2.81-.04,4.2-.03s2.74.16,4.07-.17c1.44-.35,2.34-.33,3.81-.55,2.04-.3,4.34-1.01,6.3-1.53,2.44-.65,4.28-3.02,2.18-4.82-2.07-1.79-5.51-1.53-8.02-2.5-2.65-1.03-5.25-1.29-7.97-2.11s-4.98-1.68-7.64-2.26c-.56-2.19,10.04-.48,10.72-2.92"/>
              <path class="cls-14" d="m483.04,133.43c-2.9-.83-5.46-.77-8.43-.77-1,0-2.04-.08-3.04-.02-1.38.08-2.53.65-3.89.82-2.93.38-10.95-.01-10.73,4.56.1,2.03,2.91,3.82,4.63,4.6,1.95.88,3.92,2.66,6.11,3.1,4.29.87,8.67-1.75,12.68-2.73,2.13-.52,4.27-1.05,6.51-1.13.76-.03,1.55-.16,2.28.11,1.48.54,2.04,2.18,3.89,2.26,3.54.15,9.07-3.89,8.42-7.73-.43-2.53-2.45-3.13-4.62-3.66-2.4-.58-5.03-.66-7.51-1.13-3.74-.71-11.02-3.55-13.94.19"/>
              <g class="cls-17">
                <path class="cls-5" d="m222.42,199.23c-1.46-1.75-4.06-1.58-5.83-1.21-1.93.4-3.88-.04-5.82.32-4.69.87-10.1,2.73-11.94,7.66-.88,2.35-.16,4.58,1.75,6.34,2.51,2.31,5.41,2.88,8.5,3.36,1.3.2,2.32.84,3.6.84,1.06,0,3-.62,4.13-.78,2.93-.41,6.09-1.05,8.95-1.85,4.12-1.15,9.46-2.04,13.63-.65,2.23.74,3.52,2.38,5.5,3.46,1.85,1,3.15.64,5,.92,1.38.21,2.46.84,3.83,1.05,4.19.66,8.28-.6,12.36.68,2.01.63,5.56,2.15,7.62,1.06,2.17-1.15,1.69-3.59,4.68-3.9-.96-2.69-2.41-6.16-3.76-8.62-1.68-3.05-4.78-5.39-8.26-5.82-3.01-.38-6.49.84-8.78-1.82-1.27-1.47-1.16-2.82-3.09-3.98-1.43-.86-3.21-1.69-4.87-1.97-3.47-.59-6.47.69-9.76,1.07-2.46.28-6.78.58-8.76-.9-1.89-1.41-2.24-3.79-4.56-5.07-1.57-.86-3.25-1.27-5.09-.95-3.66.64-7.16,3.34-9.71,5.89"/>
              </g>
              <g class="cls-17">
                <path class="cls-5" d="m343.78,223.5c-2.33.31-6.08,1.29-4.73-2.67.67-1.96,3.26-3.62,4.68-5.04,1.92-1.93,3.63-3.67,5.85-5.14,2.7-1.78,4.6-1.75,7.81-1.71,5.69.07,8.48-2.47,12.84-5.82,1.98-1.52,3.17-2.71,5.56-2.94,2.2-.2,4.87-.26,7.03.21,2.56.56,5.03,1.93,7.55,2.5,2.13.48,4.41.22,6.6.22,4.5,0,8.59.99,13.05.97,2.3-.01,5.36.54,7.58.05,1.86-.41,3.01-.86,4.97-.97,2.31-.13,4.28-.99,6.6-1.02,2.59-.04,5.18.02,7.77,0,5.11-.04,9.61,2.04,14.56,2.96,4.53.85,9.98-.05,14.62-.05,3.72,0,7.92.45,11.57-.22,4.8-.88,9.89-.44,14.59-1.51,2.28-.52,4.49-.79,6.79-1.3,2.48-.55,5.08-1.6,7.59-1.87,4.26-.47,8.76.2,13.06.07,2.46-.07,4.57-1.23,7.07-1.04,2.28.18,4.19.97,6.53.99s4.24.9,6.56,1.02c3.14.16,6.55-.45,9.49-1.65,5.55-2.25,9.45-8.03,15-10.31,4.21-1.73,9.86-.63,14.37-.68,2.57-.03,4.79.75,7.29,1,2.06.21,4.21-.19,6.28-.06,2.6.16,4.98,1.01,7.65,1.02,2.47,0,3.59.49,5.87,1.02,2.42.56,5.01-.96,7.43-1.04,2.56-.09,4.74-.78,7.19-.99,6.29-.54,9.5,4.01,8.86,9.94-.71,6.55-7.59,8.88-12.95,10.7-4.89,1.66-9.77,3.36-14.52,5.34-4.96,2.07-10.66,1.94-15.86,3.42-4.52,1.29-9.32,2.31-14.1,2.7-2.59.21-4.98.27-7.55.7s-5.22.41-7.72.24c-2.34-.16-4.35-.95-6.78-1.02-3.49-.1-6.35.73-9.73,1.04-5.63.53-11.57-.27-17.02-1.26-2.28-.41-4.44-.9-6.64-1.46-2.84-.73-5.54-.74-8.34-1.16-2.59-.39-5.2-1.27-7.81-1.75-2.89-.53-5.95-.75-8.77-1.43-3.98-.95-8.82-1.44-12.77-.05-2.94,1.04-5.81,3.12-8.73,3.98-1.5.44-3.12.11-4.67.38s-2.86.76-4.55.78c-6.4.08-12.8-.03-19.2-.02-6.98,0-12.99,1.34-19.71,2.67-6.09,1.2-12,3.19-18.34,3.16s-12.81-1.71-18.8-4.12c-2.69-1.09-4.24-1.72-7.26-1.7-2.5.02-5,.02-7.5,0-5.93-.05-9.32,4-14.56,6.08-2.16.86-4.44.88-6.79.73-2.88-.19-5.06-2.74-7.77-2.94"/>
              </g>
              <g id="sooraj">
                <circle class="cls-4" cx="433.6" cy="180.5" r="180.5"/>
                <circle class="cls-3" cx="433.6" cy="180.5" r="108.5"/>
                <circle class="cls-1" cx="433.6" cy="180.5" r="64.5"/>
                <circle class="cls-13" cx="433.6" cy="180.5" r="45"/>
              </g>
              <g id="clouds" class="cls-17">
                <path class="cls-5" d="m-164.96,230.59c2.06-3.86,7.51-6.34,11.63-7.77s9-3.46,13.4-3.93c3.54-.38,8.39-.38,11.92.03.74.08,1.72.5,2.38.54,1.11.07,1.3-.13,2.41-.31,2.29-.37,4.57.79,7.03.75,2.6-.04,5.16.36,7.61-.7,2.18-.95,3.42-1,5.82-1.21,2.19-.19,3.28-.35,5.56-.02,2.59.36,4.75,1.33,7.25,2.2,3.79,1.31,9.65,1.38,13.35-.24,1.88-.82,3.67-1.81,5.61-2.67,2.49-1.1,3.64-3.94,5.99-4.97,2.21-.97,5.91-.27,7.79.78s3.62,2.76,5.85,3.03c4.48.54,7.74-3.19,10.66-5.92,1.9-1.78,4.65-3.03,7.03-3.88,1.61-.58,4.71-1.73,6.37-1.75,3.77-.03,8.72,3.48,11.84,5.61,2.19,1.49,3.91,3.05,2.78,5.87-.95,2.37-3,2.34-.65,4.85,1.43,1.54,3.89,2.87,5.62,4.07,1.37.95,2.5,2.14,3.93,3.02,1.07.66,3.06,1.11,3.98,1.87,3.98,3.26,3.55,8.79-1.05,10.72-1.89.79-3.8,1.55-5.82,1.7-2.55.2-5.26-.41-7.79-.07s-4.5.81-6.97.97c-1.5.1-3.32,1.28-4.76,1.12-1.35-.15-2.76-1.23-3.81-2.01-1.91-1.43-3.14-3.13-5.59-3.71s-4.63.22-7.09.81c-4.62,1.09-9.57,1.93-14.41,1.91-3.15,0-5.45.19-8.3-.95-1.6-.64-3.09-.9-4.47-1.91s-2.1-2.34-3.72-3.13c.24-3.04.28-4.33-3.24-3.52-2.78.64-3.61,2.74-6.06,3.72-5.37,2.15-10.31,3.57-16.08,3.82-2.17.1-4.57.65-6.28,1.94-2.61,1.96-3.31,1.85-6.55.99-2.27-.6-4.28-1.59-6.56-2.2-1.98-.53-4.15-.17-6.31.34-4.48,1.08-8.71,3.17-13.19,4.25-2.94.71-4.7,2.35-7.73,2.49-2.68.12-5.09.99-7.82.97-2.52-.02-3.46-.91-5.69-1.95-2.35-1.09-5.38-2.3-6.9-4.58-2.32-3.46-1.26-10.32,2.01-12.91"/>
                <path class="cls-5" d="m-26.12,224.77c2.6-2.95,4.28-6.76,7.77-8.49,3.46-1.71,6.74-1.71,10.39-2.4,3.99-.75,8.07-.59,11.94-1.51,4.08-.97,8.59.12,12.6.73,3.71.57,7.1,2.63,10.92,1.77,2.03-.46,2.86-1.85,4.58-2.55,1.02-.42,1.75-.08,2.75-.17,1.57-.13,1.82-.39,3.34-.76,2.96-.71,6.45-.22,9.49-.22,3.32,0,7-.68,9.93.92,3.73,2.04,6.26,3.34,10.68,3.01,5.51-.42,7.64-3.84,11.62-6.86,2.96-2.24,7.11-2.4,10.76-1.97,4.06.48,7.17,2.92,11.33,3,2.8.05,7.88.87,10.54-.18,1.88-.74,2.01-2.52,3.03-4,1.48-2.14,3.18-2.08,5.44-2.77,2.73-.83,6.49-1.55,9.41-.71,2.13.62,2.97,2.56,4.58,3.79,1.74,1.32,4.03,2.08,5.9,3.37,2.71,1.88,5.16,3.76,8.23,4.95,1.63.63,3.24,1.85,4.93,2.23,2.25.51,3.65.17,5.83,1.05,3.63,1.46,7.2,2.46,10.73,4.25,3.95,2,6.75,5.18,11.09,6.72,1.81.64,9.83,1.86,6.38,4.97-2.69,2.43-8.53,3.54-11.99,3.5-1.88-.02-4.19-.32-6.07-.07-2.24.3-4.43,1.42-6.68,1.8-4.44.75-9.09,1.22-13.51,2.1-3.93.79-7.33.93-11.39.98-2.23.02-3.93.81-6.09,1.04-2.01.22-4.2-.05-6.24-.05-2.43,0-5.09.4-7.45-.22-1.77-.46-2.78-.77-4.7-.75-4.14.03-7.89-1.04-11.96-.97-2.59.04-5.27-1.49-7.72-1.02-1.41.27-2.39.95-3.86,1.04-1.92.12-3.88-.04-5.8-.03-3.75.03-7.12-.99-10.87-.97-4.14.03-8.55-.44-12.67-.05-4.05.39-7.62,1.98-11.51,2.99s-7.88,1.01-11.84,1.7c-2.87.5-7.74.87-10.63.05-1.06-.3-1.92-1.31-2.99-1.61-1.22-.34-2.36-.18-3.59-.16-2.05.03-3.85-.15-5.83.45-4.75,1.43-9.64,2.29-14.66,1.27-3.89-.79-8.43-1.72-12.09-3.14-3.43-1.33-9.58-5.85-10.26-9.47-.92-4.93,2.94-9.03,5.91-12.41"/>
              </g>
              <g class="cls-17">
                <path class="cls-5" d="m1083.55,111.13c-4.89-1.07-10-1.99-14.51-4.02-4.01-1.8-7.74-3.67-11.51-5.94-3.51-2.11-7.18-4.38-10.91-6.15-3.66-1.74-7.31-2.22-11.15-3.03-1.02-.21-1.65-.62-2.62-1-1.36-.53-2.32-.32-3.69-.53-1.12-.18-1.95-.62-3.02-.83-1-.19-2.13.29-3.13.08-1.91-.41-3.07-.81-5.13-.81-2.41,0-4.84-.08-7.25-.02-3.67.1-7.06,1.31-10.55,2.15-1.87.45-4.19.39-5.98,1.08-1.22.48-1.68,1.14-3.02,1.42s-2.67.36-4.02.73c-4.15,1.14-8.55,2.58-12.83,3.1-1.98.24-4.11-.12-6.11-.06-2.58.08-4.79.79-7.45.78-4.14,0-8.27,0-12.41,0-3.09,0-6.22.15-9.3.02-1.26-.05-2.07-.37-3.24-.61-1.74-.35-3.59-.17-5.38-.17-2.27,0-4.55.07-6.81.02-2.39-.06-4.55-.8-6.97-.78-2.17.02-4.35.05-6.52.02-.97-.01-1.56-.02-2.46-.19-.73-.36-1.5-.58-2.3-.68-.67.1-1.3.33-1.89.68-1.88.42-4.04.2-5.96.17s-3.47.6-5.3.78c-1,.1-2.17-.28-3.15-.06-.88.2-1.52.63-2.43.83-2.17.48-4.36.86-6.56,1.51-4.23,1.26-8.78,2.72-13.19,3.06-1.79.14-3.4.61-5.19.77-1.1.1-1.45.32-2.47.6-1.24.34-2.42-.09-3.66.13-1.98.35-3.25.81-5.36.81-1.7,0-3.95-.41-5.57-.04-.9.2-1.5.69-2.43.85-.99.17-1.9-.09-2.89.13-1.9.42-4.75.79-5.4,2.83-.6,1.89-.81,3.56.37,5.04,1.4,1.76,3.29,1.96,5.22,2.85,2.25,1.03,3.49,1.72,5.92,2.11s4.92.82,7.25,1.38c3.56.86,9.14.54,12.55-.79,2.03-.79,3.96-1.7,6.06-2.31s4.31-.86,6.51-1.54c4.04-1.25,7.68-1.32,11.89-1.32,2.11,0,4.23.01,6.34,0,2.5-.01,4.62.64,7.01.78,2.7.17,5.73-.6,8.35.15,2.41.69,4.71.32,7.26.77,4.77.83,9.62.91,14.35,2.13,1.96.5,3.88.81,5.81,1.32,2.67.72,5.54,1.7,8.31,1.76,4.45.1,8.69,1.28,12.9,2.47,2.77.78,5.63,1.22,8.46,1.3,2.51.07,4.51,1.18,6.89,1.57,2.71.45,5.38.69,8.05,1.32,3.52.83,6.72.61,10.21,1.15,10.79,1.67,21.52,2.13,32.55,2.13,5.03,0,10.1.18,15.13.02,1.28-.04,2.08-.38,3.27-.61,1.45-.28,2.8-.09,4.27-.13,2.24-.06,4.37-.73,6.59-.85,1.43-.08,2.7.12,4.13-.09,1.96-.29,3.94-1.01,5.82-1.63,1.64-.54,3.47-.57,5.11-1.26,1.27-.54,2.09-1.18,3.36-1.59,1.13-.37,2.41-.37,3.51-.92,2.23-1.12,3.92-2.6,6.32-3.49.96-.35,1.37-.26,2.26-.88,1.14-.79,1.95-2.1,3.08-2.95,1.67-1.26,3.03-3.19,2.33-5.59-.38-1.3-.5-.95-1.57-1.47-.96-.47-2-1.37-3.08-1.59-1.87-.39-4.43.06-6.34.06-1.01,0-2.04.05-3.04.02-1.54-.06-2.9-.81-4.4-.78"/>
              </g>
              <path class="cls-9" d="m151.55,212.83c-.02-1.78,1.12-2.62,2.41-3.56,1.58-1.17,2.41-.78,4.17-1.48,1.23-.48,2.08-1.33,3.32-1.78,1.83-.67,3.82-.57,5.66-.92,2.73-.53,5.55-.85,8.2-1.48,3.41-.81,7.12-.49,10.68-.49,6.67,0,14.28-1.04,20.85.22,5.93,1.13,11.69.95,17.51-.13,2.51-.47,5.85-.32,8.25.39,1.29.38,2.3.79,3.4,1.57.92.65,1.48,1.43,2.55,1.8.86.3,1.91.26,2.8.5,2.9.76,4.8,1.68,7.85,1.52,1.45-.07,2.54-.63,3.92-.92,1.63-.34,3.54-.08,5.22-.08,2.45,0,5.33.45,7.74.05,3.05-.51,6.13-1.49,9.13-2.08,5.65-1.13,11.29-1.82,17.12-1.85,6.32-.04,11.53,4.08,17.7,4.9,5.54.74,11.51-1.02,17,.17,2.56.55,6.16,2.12,8.74,1.53,2.99-.68,5.61-.78,8.76-.78,2.66,0,4.55-.11,7.01-.75,2.71-.71,5.39,0,8.03.54,2.27.47,4.7.22,7.02.22,3.27,0,6.14.24,9.3.75,2.39.39,4.83.9,7.22,1.22,3,.4,5.9-1.03,8.95-1,6.24.06,12.48,0,18.72,0,3.03,0,6.07.04,9.1,0s5.78-1.04,8.86-.98,5.33-1.01,8.28-.98c2.74.03,5.48,0,8.22,0,2.47,0,4.95-.02,7.42,0,3.99.02,7.56-.99,11.52-.97,2.83.01,5.03-.53,7.73-1.02,2.93-.54,6.68.03,9.7.06s5.91-1.54,8.78-1.03c3.34.6,6.21,1.04,9.68,1.02,6.04-.04,12.04,1.93,18.21.75,3.08-.59,5.59-.66,8.74-.73,1.41-.03,2.78-.53,4.15-.56,1.79-.04,3.69.55,5.56.54s3.74-.22,5.52.09c1.61.28,2.73.89,4.45.91,3.04.03,5.51.97,8.53.94,5.51-.05,11.04-.08,16.56,0,2.76.04,5.26-.77,7.92-1.46,3.5-.92,7.12-1.15,10.63-2.17,2.79-.81,5.61-.67,8.33-1.29,2.93-.67,5.48-.89,8.59-.89,6.22,0,11.94-1.98,18.05-1.94s12.32-.75,18.03.48c3.87.84,7.84-.12,11.69.7,3.5.75,6.25,1.66,9.88,1.68,3.36.02,6.54.9,9.9.99s7.33,1.33,10.66,2.08c6.27,1.42,13,.86,19.51.85,7.12,0,13.77-1.03,20.59-2.91,3.49-.96,6.98-1.73,10.46-2.7,2.87-.8,5.7-.75,8.53-1.4s5.43-1.71,8.42-1.75c3.53-.05,7.1.23,10.62.07,2.11-.1,4.07-.89,6.15-1.06,1.5-.12,3.08.04,4.59.03,4.4-.05,8.18,1.75,12.34,1.97,1.52.08,3.28-.37,4.76-.07,1.2.24,2.1.89,3.33,1.06,2.87.39,5.4.09,8.25.72,2.3.51,4.97,1.11,7.28,1.19,3.36.12,6.6-.19,9.94.48,3.16.63,6.24.47,9.47.48s6.06-.81,9.23-.94,6.15-1.68,9.23-2.01,5.79-.75,8.77-1.43c2.06-.47,4.16-1.1,6.25-1.5,2.85-.54,6.41.07,9.32.05,6.17-.04,12.61.99,18.44,2.98,3.23,1.1,6.21,3.04,9.53,4.05,3.47,1.06,7.01,1.52,10.33,2.94,2.45,1.05,5.02.55,7.51,1.87,3.01,1.59,5.82,3.46,8.95,4.93,3.22,1.52,5.59,2.57,8.58,4.61,1.16.79,2.1,1.46,3.31,2.13,1.97,1.09,2.92,2.41,4.63,3.72,1.48,1.14,2.69.83,2.35,2.91-.25,1.53-1.72,3.51-2.58,4.82-1.49,2.29-3.18,3.79-5.59,5.1-6.3,3.45-12.43,7.03-18.53,10.87-3.99,2.51-8.31,5.46-12.54,7.57-5.72,2.85-11.8,5.25-17.74,7.31-1.96.68-4.07,1.06-6.12,1.84-9.71,3.71-19.76,6.46-29.67,9.59-3.32,1.05-6.79,2.56-10.16,3.25-1.43.29-2.83,0-4.26.3s-3.03.88-4.52,1.25c-2.76.69-5.71.94-8.5,1.46-5.1.97-11,1-16.23,1.44-7.21.61-14.58,1.44-21.82,1.49-3.39.02-6.79-.02-10.18-.03-6.77-.03-13.45.86-20.19,1.02-1.99.05-4.41.22-6.41-.01-1.83-.21-3.39-.99-5.31-1.04-11.51-.34-23.08.04-34.6.04-7.45,0-15.04.37-22.48-.19-14.13-1.07-28.19-2.11-42.32-2.77-3.95-.18-7.55.68-11.41,1.07-2.95.3-6.1-.05-9.07-.05-7.35,0-14.83-.5-22.07.75-5.65.98-11.82.21-17.55.22-1.57,0-3.33-.23-4.89-.05s-2.98.91-4.59,1.04c-3.28.28-6.64-.14-9.94.06-5.13.31-10.08.89-15.22.89-10.78,0-22.13.83-32.84-.49-4.31-.53-8.8-.05-13.01-.97-1.68-.37-3.13-.3-4.8-.46-2.84-.27-5.45-1.25-8.53-1.48-4.95-.37-9.95-1.29-14.89-1.51-2.46-.11-4.66,0-7.15-.52-2.79-.58-5.45-1.38-8.31-1.42-2.24-.03-3.99.08-6.14-.44-5.28-1.27-11.43-.81-16.88-1.19-5.83-.41-12.31-2.08-18.03-.75-7.42,1.72-16.55.49-24.25.49h-24.91c-9.64,0-19.32.28-28.94.05-2.91-.07-5.71-.9-8.58-1.06-2.2-.12-4.51.04-6.71.04-3.98,0-7.96-.02-11.94,0-2.8.01-4.93-.66-7.52-.97-3.88-.46-7.91-.3-11.83-.75-2-.23-3.95-.25-5.96-.22-3.52.05-6.87-.7-10.34-1.06-1.97-.21-3.68-.85-5.65-.9-2.69-.07-5.44.34-8.09-.19-4.35-.87-8.77-.25-13.07-1.24-1.7-.39-3.14-.28-4.86-.43-1.98-.17-3.72-.97-5.7-1.02-3.72-.1-7.31-1.01-11.01-.97-6.69.08-13.38-.12-20.07-.01-3.76.06-7.31,1.74-11.07,1.99-5.76.38-11.69.13-17.4,1.03-8.87,1.4-18.5,1.97-27.22,4.3-11.4,3.05-23.15,3.42-34.88,4.34-14.01,1.1-27.82.8-41.9.98-3.72.05-7.74-1.2-11.43-1.93-4.13-.82-7.33-2.92-11.13-4.66-4.72-2.17-6.87-7.06-3.86-11.87,2.01-3.22,4.5-6.4,7.65-8.62,2.69-1.9,5.67-2.47,8.66-3.76,2.84-1.23,5.16-2.28,7.74-3.9.95-.6,1.93-.76,2.92-1.17,1.75-.71,2.97-1.98,4.61-2.99,1.46-.89,2.97-1.15,4.5-1.86,1.4-.65,2.6-1.74,3.98-2.49,1.62-.88,3.42-1.38,5.01-2.3,2.58-1.49,4.82-3.63,7.46-5.03,7.11-3.77,14.38-7.83,22.02-10.38,2.45-.82,4.89-1.6,7.39-2.28,3.33-.9,7.01-1.14,10.17-2.55,3.4-1.52,6.98-2.6,10.38-4.15,1.87-.85,5.71-1.36,7-2.89"/>
              <path class="cls-8" d="m-257.92,247.84c3.51-2.34,7.38-2.27,11.2-3.86,5.46-2.28,12.21-4.8,18.23-4.75,8.01.07,14.73,2.65,22.26,4.97,3.29,1.01,6.34,2.78,9.69,3.64s6.56,1.69,9.75,2.47c2.98.72,5.15,1.13,8.33,1.14,4.1.01,6.48-1.23,10.31-2.53,6.54-2.21,12.97-3.04,19.6-4.69,3.12-.78,6.3-.6,9.57-.55,3.47.05,7.15,2.17,10.55,1.62s4.11-5.69,7.45-7.01c2.88-1.14,8.19-.13,10.86.92,7.16,2.8,13.84,6.6,21.14,9.22,3.38,1.21,6.52,1.37,9.96,2.01,3.79.7,7.28,1.94,11.11,2.1,2.12.09,3.88,1.06,6.01,1.18,1.6.09,3.25-.04,4.86-.04,3.21,0,6.86.51,9.97-.25,7.48-1.82,14.9-2.51,22.46-4.47,3.62-.94,7.46-1.25,11.18-1.85,1.69-.27,3.34.02,5.04-.05,2.47-.11,4.65-1.11,7.14-1.18,7.18-.2,14.38.09,21.56.03,3.67-.03,6.75,1.14,10.39,1.11s6.9.26,10.27-.83c1.56-.51,3.16-.84,4.69-1.36,1.96-.66,3.6-1.6,5.53-2.28s4.04-.58,5.8-1.73c2.49-1.64,3.17-2.29,6.21-2.95,3.99-.87,8.3-2,12.44-1.95,2.13.03,4.36.2,6.48.02s3.87-1.07,5.98-1.18c4.37-.22,8.17.32,12.33,1.06s8.39-.37,12.47.04c2.23.22,4.13,1.11,6.39,1.18s3.89.22,6.11.83c4.77,1.31,9.48,2.41,14.23,3.91s9.27,3.69,14.14,4.98c4.39,1.16,10.26,2.33,12.47,6.62,1.32,2.56,2.97,4.42,4.72,6.68,3.06,3.94,6.24,7.52,9.06,11.69.61.9,6.92,9.45,7.84,12.61.25.87-.18,1.69.04,2.68.19.87.89,1.23.95,2.25.09,1.47-.7,1.49-.95,2.44-.81,3.05-1.34,7.35-3.52,9.81-1.84,2.09-5.62,4.53-8.08,5.25-3.37.99-6.02,1.36-9.76,1.36s-7.41,0-11.12,0c-2.59,0-5.27.27-7.81-.25-3.72-.75-7.14-.61-10.95-1.11-12.19-1.61-24.55-1.98-36.86-1.98-5.09,0-10.18.03-15.28,0s-10.24,1-15.47,1.14c-9.96.27-19.62,2.96-29.52,3.33-6.09.23-11.93,1.53-17.9,2.3s-12.3,2.39-18.44,3.5c-6.63,1.2-13.36,2.23-19.95,3.61-1.93.41-3.63,1.24-5.5,1.7-2.09.52-4.48.47-6.69,1.05-3.03.81-6.13,1.16-9.07,2.24-8.78,3.21-18.02,4.94-27.07,7.13-7.03,1.7-14.51,1.96-21.69,2.87-14.9,1.9-29.82,2.77-44.77,1.43-12.54-1.12-24.81-3.63-37.28-5.25-10.94-1.42-21.73-.3-32.63-1.42-4.01-.41-8.03-.67-12.04-1.08-6.71-.69-13-2.83-19.56-4.23-5.93-1.27-11.91-3.72-17.46-6.12-11.12-4.82-9.96-18.97-10.95-28.89-.75-7.49-3.2-14.62-3.14-22.21.02-2.07.11-4.21.05-6.29-.07-2.37-1.59-4.76-.18-6.84,1.33-1.96,4.85-3.64,6.8-4.93Z"/>
              <g class="cls-20">
                <path class="cls-9" d="m188.85,289.25c-.06-1.02-.76-1.38-.95-2.25-.22-.98.22-1.81-.04-2.68-.92-3.15-7.23-11.71-7.84-12.61-2.82-4.16-5.99-7.74-9.06-11.69-1.76-2.26-3.41-4.13-4.72-6.68-2.21-4.29-8.08-5.46-12.47-6.62-4.87-1.29-9.39-3.48-14.14-4.98-4.75-1.5-9.46-2.6-14.23-3.91-2.22-.61-3.74-.75-6.11-.83-2.26-.07-4.16-.96-6.39-1.18-4.08-.41-8.43.68-12.47-.04-4.16-.74-7.96-1.28-12.33-1.06-2.11.11-3.9,1.01-5.98,1.18-2.12.17-4.35,0-6.48-.02-4.14-.05-8.45,1.07-12.44,1.95-3.04.67-3.71,1.31-6.21,2.95-1.76,1.16-3.91,1.07-5.8,1.73-1.92.68-3.56,1.62-5.53,2.28-1.54.52-3.13.85-4.69,1.36-3.37,1.1-6.67.8-10.27.83-3.64.03-6.72-1.14-10.39-1.11-7.18.06-14.39-.23-21.56-.03-2.49.07-4.67,1.07-7.14,1.18-1.7.08-3.35-.22-5.04.05-3.72.6-7.57.92-11.18,1.85-7.56,1.96-14.99,2.65-22.46,4.47-3.11.76-6.77.25-9.97.25-1.61,0-3.26.14-4.86.04-2.13-.13-3.9-1.1-6.01-1.18-3.83-.16-7.33-1.39-11.11-2.1-3.43-.64-6.58-.8-9.96-2.01-7.3-2.62-13.98-6.42-21.14-9.22-2.67-1.04-7.98-2.06-10.86-.92-.41.16-.79.39-1.13.65-.56.88-.95,1.88-1.09,3.02h1.94c2.64,2.38,2.7,7.26,5.04,10.17.96,1.19,1.7,1.82,2.51,3.18.47.79.55,1.39,1.13,2.2,1.81,2.52,4.66,3.18,7.11,4.81.88.59,1.78,1.49,2.7,2.04,1.28.76,1.67.62,3.08,1.09,2.13.71,4.25,2.12,6.36,2.96,3.81,1.52,7,4.15,10.9,5.11,3.22.79,6.48,1.59,9.66,2.39,4.77,1.21,9.05,3.53,13.69,5.17.97.34,1.87.48,2.86.76,1.23.34,1.85,1.14,2.94,1.68,1.78.88,4.16,1.71,6.07,2.39.85.31,1.87.5,2.69.92,1.13.57,1.79,1.71,2.82,2.27.95.52,1.88.21,2.75.62,1.51.72,2.46,2.02,3.6,3.21,1.84,1.91,3.89,2.48,5.87,3.98,1.91,1.44,2.98,2.46,5.29,3.3,3.93,1.44,7.81,3.02,11.64,4.59,2.16.88,4.31,1.8,6.56,2.47,2.91.88,5.92,1.03,8.86,1.95,5.47,1.71,11.12,2.5,16.85,2.62.65-.1,1.29-.2,1.94-.28,5.97-.77,11.81-2.07,17.9-2.3,9.9-.37,19.57-3.07,29.52-3.33,5.23-.14,10.21-1.17,15.47-1.14,5.09.03,10.18,0,15.28,0,12.31,0,24.67.36,36.86,1.98,2.45.33,4.75.38,7.07.58,1.61-.2,3.2-.35,4.91-.34,2.12.01,4.49.27,6.56-.22,5.04-1.2,10.95-1.61,15.77-3.88,6.17-2.92,11.89-6.08,16.39-11.45.5-.6.99-1.2,1.48-1.81,0-.12.01-.25,0-.39Z"/>
              </g>
              <path class="cls-16" d="m-119.01,329.22c1.57-1.71,4.66-2.85,6.64-4.17,1.81-1.21,3.83-2.08,5.86-2.81,3.11-1.12,4.68-2.3,7.45-3.89,2.85-1.64,6.3-2.47,9.27-3.85,4.41-2.04,8.67-4.5,13-6.67,2.55-1.28,4.88-2.29,7.53-3.34,2.1-.83,3.68-2.53,5.78-3.11,8.5-2.34,17.13-4.49,25.85-6.36,2-.43,3.87.07,5.84-.21s3.93-.77,5.86-1.12c4.23-.77,8.38-2.04,12.66-3.09,2.31-.57,5.26-1.3,7.59-1.43s4.5.36,6.73-.21c1.68-.43,3.3-1.56,5.03-1.87,2.7-.49,5.51.26,8.22-.04,1.94-.22,3.94-.98,5.86-1.44,2.32-.56,4.12-.42,6.37-.78s3.86-1.12,6.14-1.18c2.96-.08,4.69-.52,7.45-1.13,9.98-2.2,20.4-1.56,30.33-3.85,8.92-2.06,17.79-3.88,26.77-5.98,10.23-2.39,20.25-4.61,30.26-8.34,4.41-1.64,8.34-4.29,12.83-5.27s8.93-3.05,13.16-4.62c4.22-1.56,8.52-1.98,12.78-3.33,4.6-1.46,8.8-2.97,13.64-3.03,4.03-.05,8.37-1.33,12.25-2.19,5.19-1.14,9.92-1.14,15.33-1.14h12.38c4.38,0,9.33-.65,13.61.25,4.03.85,8.06,1.33,12.03-.44,1.96-.87,3.24-3.46,4.93-4.72,2.46-1.83,4.55-1.26,7.23-1.69.86-.14,1.65-.89,2.47-.99,1.73-.2,2.16.65,3.67.82,2.19.24,3.99.5,6.14.97,1.86.41,3.63.16,5.5.76,2.55.82,4.35,1.39,6.92,1.93,2.05.43,4.17,1.39,6.16,2,2.36.72,4.26.85,6.67,1.36,1.78.38,3.47,1.45,5.22,1.87,2.35.56,4.62.7,6.98,1.47,1.9.62,3.61,1.4,5.52,1.95,2.74.79,5.03,2.38,7.83,3.12.8.21,1.71.11,2.47.46.88.4,1.51,1.48,2.47,1.82,1.29.47,2.44-.08,3.68.28s2.11,1.16,3.25,1.6c1.94.76,4.12.92,6.12,1.61,2.26.77,4.38,1.71,6.64,2.49,4.8,1.66,9.2,4.01,13.85,5.88,3.75,1.51,7.28,3.35,11.2,4.43,4.42,1.23,8.07,3.83,12.33,5.55,8.26,3.33,15.86,7.09,23.85,10.86,4.26,2.01,8.6,4.1,12.76,6.39,3.46,1.9,7.1,3.03,10.51,4.58,1.82.83,4.16,4.44,3.44,6.58-.46,1.37-2.11,1.92-3.41,2.45-3.94,1.6-9.33,3.12-13.6,3.03-2.8-.06-3.83.62-6.36,1.17-1.78.39-4.04-.04-5.89-.05-4.61-.04-8.67,1.44-13.03,2.28-2.02.39-4.23-.37-6.27.04-2.29.45-3.84,1-6.16.99-3-.01-5.44,1.03-8.37,1.17-2.69.13-5.41-.03-8.11-.03-2.03,0-4.08-.08-6.12-.01-2.42.08-4.24.88-6.57,1.18-2.68.35-5.24.02-7.84.5-2.35.43-4.52.56-6.98.56-7.22-.01-15,.7-22.2-.25-3.42-.45-6.34-.92-9.79-.86-3.03.05-5.4-.87-8.35-1.17-1.9-.19-3.88.35-5.78.11-3.04-.38-5.23-1.19-8.39-1.16-1.62.01-3.24,0-4.86,0-3.92,0-6.85-.7-10.64-1.17-1.99-.25-4.1.15-6.11.08-2.44-.09-4.24-1.04-6.62-1.17s-4.27-.41-6.5-.83c-2.37-.46-4.74-.09-7.17-.21s-4.47-1.13-6.97-1.18c-2.11-.04-4.25.25-6.35-.07-2.55-.39-4.6-1.04-7.23-1.01-2.44.02-5.37.36-7.76-.1-2.56-.49-4.3-1.03-6.96-1.01-2.33.02-4.66,0-6.98,0-1.93,0-3.93-.14-5.85-.03-2.06.12-2.86,1.02-4.89,1.16-4.22.3-8.85-.74-13.01.07-5.3,1.04-10.17,1.02-15.71,1.02-9.16,0-18.32.09-27.47-.03-5.9-.07-11.58,1.14-17.51,1.14-4.72,0-10.04-.7-14.66.25-2.42.5-4.13.75-6.62.82-2.7.08-5.01,1.1-7.68,1.18-3.4.1-7.02-.44-10.41-.08-2.45.26-4.41,1.19-6.93,1.16-5.17-.06-9.77,1.14-14.82,1.11-2.22-.01-4.52-.16-6.73-.04-2.96.16-5.5,1.19-8.48,1.15-3.75-.05-8.3-.65-11.98-.05-4.6.75-9.35,1.87-14.03,2.31-5.33.5-10.55,1.13-15.92,1.08-2.39-.02-4.49.08-6.78.8-2.87.9-5.12,1.12-7.97,1.66-8.3,1.57-16.43,2.76-24.65,5.17-11.06,3.25-22.26,5.87-33.47,8.53-4.67,1.11-9.45,2.43-14.22,3.29-4.41.8-8.75,2.21-13.27,2.82s-10.61-.88-13.51-4.59c-1.4-1.79-2.18-4.61-1.57-6.86.42-1.56,2.56-6.7,4.28-6.39"/>
              <g class="cls-28">
                <path class="cls-15" d="m356.53,269.87c-.43-1.17-.37-2.34-.13-3.5-3.64-1.6-7.2-3.36-11.02-4.68-2.26-.78-4.38-1.72-6.64-2.49-2-.69-4.18-.85-6.12-1.61-1.14-.44-2.06-1.26-3.25-1.6-1.24-.36-2.39.19-3.68-.28-.96-.35-1.59-1.42-2.47-1.82-.76-.35-1.68-.25-2.47-.46-2.8-.74-5.09-2.33-7.83-3.12-1.91-.55-3.63-1.33-5.52-1.95-2.36-.77-4.63-.9-6.98-1.47-1.74-.42-3.44-1.49-5.22-1.87-2.42-.51-4.31-.64-6.67-1.36-1.99-.61-4.12-1.57-6.16-2-2.57-.54-4.37-1.11-6.92-1.93-1.87-.6-3.64-.35-5.5-.76-2.15-.47-3.95-.73-6.14-.97-1.51-.17-1.94-1.02-3.67-.82-.82.1-1.61.85-2.47.99-2.68.43-4.77-.15-7.23,1.69-1.69,1.26-2.97,3.85-4.93,4.72-1.64.73-3.28,1.06-4.94,1.16-.93,2.93-1.72,5.69-4.55,7.91-1.42,1.12-3.21,2.41-4.85,3.16-2.06.94-2.58.57-2.95,2.97-.51,3.3-1.73,7.23.23,10.27,1.24-.29,1.61-1.6,2.67-2.21,1.1-.64,2.73-.9,3.98-.7,2.53.4,3.01.42,4.59-1.89.74-1.09,1.27-1.89,2.16-2.91.41-.47,1.77-2.78,2.16-3.03,1.79-1.14,4.86,1.64,6.63,2.35,2.07.83,4.14.14,4.85,2.58.57,1.97,0,4.08,1.85,5.69,3.74,3.27,9.14-.05,12.88-.82,2.32-.48,3.46-.31,5.35-1.89,1.78-1.49,3.71-2.92,6.36-1.83,3.22,1.33,1.9,3.44,5.61,1.79,1.72-.76.96-1.11,2.86-.3,2.03.87,2.59,2.31,3.88,3.97,2.85,3.65,6.64,7.91,11.44,8,4.41.08,8.83-.02,13.24-.02,3.55,0,8.19-.9,11.24,1.16,1.88,1.27,3.66,3.68,5.83,4.49,1.91.71,4.01.13,5.76-.54,4.96-1.89,9.49-1.83,14.63-2.19,2.04-.14,3.73-.84,5.82-.97,3.95-.26,2.1-2.55.02-4.9-1.7-1.92-4.8-3.57-5.72-6.04Z"/>
              </g>
              <path class="cls-16" d="m-260.12,578.11c8.69-.14,16.65-2.42,24.45-6.39,3.32-1.69,7.96-2.37,10.45-5.24,1.03-1.18,2.57-3.6,2.94-5.04.61-2.37.48-4.26,3.52-5.39,1.64-.6,3.55-.04,5.24-.42,2.06-.45,3.5-.74,5.64-.83,5.96-.26,4.35-4.42,6.59-8.41,2.05-3.65,7.27-3.95,10.97-4.95s7.51-1.29,11.36-1.98c1.83-.33,3.66,0,5.5-.34,2.12-.4,3.33-1.02,5.53-1.02,4.67,0,8.1-1.74,10.29-5.81,1.87-3.47,2.99-7.47,4.05-11.32,1.31-4.73,3.92-5.9,8.46-7.46,3.42-1.18,7-1.44,10.5-2.32,4.23-1.07,8.63-1.11,12.85-2.07,1.77-.4,2.54-.98,4.42-1.03,2.09-.06,4.36.32,6.43.07s3.9-1.13,6.11-1.19c1.87-.06,3.91.33,5.75.08,3.88-.53,7.99-1.28,11.73-2.28s7.89-2.03,11.63-3.64,7.84-2.07,11.6-3.15c1.6-.46,2.91-1.52,4.5-2,2.13-.64,4.58-.69,6.81-1.34s3.85-.76,6-.95c1.72-.15,3.01-.93,4.7-1.2,1.9-.3,3.96.35,5.86.1,1.74-.23,3.18-.99,4.94-1.18,6.8-.73,15.86-.79,22.28.89,1.53.4,2.93-.05,4.44.19,1.87.3,3.2,1.76,5,2.19,1.9.45,3.15.05,5,.89,2.21,1.01,4.35,2.05,6.66,2.83,3.22,1.09,6.53,1.88,9.7,3.03,2.22.8,3.92,1.18,6.32,1.12,2.56-.05,4.17.52,6.65,1,4.03.78,8.47-1.03,12.63-1.01,3.71.01,7.69.42,11.3-.25,2.23-.41,3.88-.78,6.18-.85,2.15-.06,3.74-.96,5.85-1.18,1.6-.17,3.05.23,4.64-.16,2.68-.66,5.22-2.18,7.88-2.89,8.95-2.39,18.24-6.18,21.33-15.77,1.7-5.29-1.3-7.63-4.94-11.38-2.28-2.35-4.55-3.3-7.61-4.2-.68-.2-1.09.18-1.86-.16-1.19-.52-2.3-1.79-3.67-2.36-1.63-.68-3.84-1.34-5.53-1.67-2.18-.42-4.38.84-6.72.92-3.52.12-7.07-.03-10.59-.03-4.68,0-8.99.06-13.28-1.77-.97-.41-1.66-1.17-2.68-1.58-1.16-.47-2.71-.79-3.94-.99-2.15-.35-4.78.46-6.83-.24.48-1.17,1.08-4.55,2-5.28.74-.59,4.21-1.11,5.36-1.3,1.78-.3,3.5.21,5.17.61,2.02.48,3.95.38,5.95.81,3.69.78,6.56,1.99,10.45,1.97s8.03-.47,11.74.25c2.15.42,3.02.8,5.19.32,2.28-.5,4.05-.54,6.42-.55,3.94-.02,8.3-1.1,12.07-2.21,3.4-1,6.58-2.85,9.97-4.2,1.82-.72,3.6-1.24,5.33-2.2,2.72-1.51,2.17-2.14,1.24-5.2-.45-1.49-3.69-5.92-3.36-7.37.47-2.06,8.48-3.25,10.35-3.32,4.17-.15,6.17-.71,7.09-5.57.44-2.34-.72-7.29-3.05-8.66-1.83-1.08-2.96.7-4.5.77-1.72.08-3.88-1.94-5.05-3.17s-1.76-3.06-2.95-4.19c-1.38-1.32-3.73-2.75-5.36-3.67-3.61-2.03-7.81-2.14-11.97-2.14-1.55,0-3.11,0-4.66.01-2.42.03-4.09-.74-6.42-1.15-3.62-.64-10.64-.96-10.4-6.38s7.31-3.46,10.4-2.72c1.78.43,3.52.1,5.28.49,2.1.46,3.86,1.38,6.18.77,2.19-.58,3.4-1.06,5.82-1.01,1.91.04,4.1.25,5.52-1.36-2.05-2.39-5.84-2.64-8.64-3.36-3.06-.79-6.16-1.77-9.27-2.5-2.7-.63-6.52-1.07-8.93-2.33-1.25-.65-2.26-1.08-3.44-1.56-1.02-.42-3.23.06-2.68-2.04,4.44-.52,8.87-1.44,13.19-2.68,2.83-.81,3.89-.66,6.66.27,2.62.87,5.1,1.14,7.84,1.11,4.65-.04,9.77.81,14.19-.81,2.15-.79,4.35-1.81,5.86-3.61.81-.97,3.29-4.31,3.16-5.55-.45-4.22-10.59-1.53-11.67-6.68-.34-1.61,1.54-2.33-.33-4.03-.65-.59-2.07-.74-2.89-1.01-2.79-.89-5.6-1.79-8.37-2.78-2.38-.85-4.94-1.93-7.44-2.27-2.8-.38-5.8.3-8.63.11-2.56-.17-4.66-1.09-7.23-1.16-2.82-.08-5.05-.36-7.78-.87-2.41-.45-4.33-.49-6.64-1.11-2.44-.66-4.96.11-7.45-.44-3.11-.7-6.1-2.54-9.27-3.2-2.75-.57-5.99-.86-8.84-1.05-2.67-.19-5.82-.36-8.35-1.18-2.68-.87-4.68-2.76-7.71-3.27-3.47-.58-6.91-1.89-10.39-2.25-1.13-.12-2.22.21-3.34-.16-2.04-.66-3.64-2.36-5.86-2.92-4.7-1.18-9.66-2.38-14.47-3.31-4.82-.93-9.59-2.47-14.42-3.33-2.42-.43-4.99-.27-7.48-.25-2.91.03-5.21-.7-7.99-1.16-2.92-.49-6.47.04-9.46.06-3.89.02-7.36-.99-11.14-1.15-13.33-.58-26.47-2.28-39.52-5.24-5.52-1.25-11.37-2.98-16.67-5-2.18-.83-4.34-2.1-6.55-2.81-3.21-1.02-6.53-1.4-9.69-2.72-5.41-2.26-10.75-4.42-16.43-5.83-7.18-1.78-14.16-2.86-21.43-4.19-12.9-2.37-26.09-4.17-39.22-4.17-11.92,0-23.51.45-35.01-2.73-2.44-.68-4.72-1.36-7.13-1.95-2.07-.51-3.62-.58-5.8-.81-1.9-.2-4.59-2.14-6.47-1.05s-3.14,8.5-3.33,10.38c-.46,4.36-.08,8.36-.81,12.76-.48,2.89-.24,5.89-.25,8.83,0,8.18-.79,16.45-1.98,24.56-.36,2.48-.12,4.81-.19,7.29-.13,4.61-1.17,9-1.13,13.63s-1.2,8.63-1.15,13.03c.05,4.85,0,9.7,0,14.56v22.4c0,4.43.33,9.01-.22,13.35-.58,4.57-2.08,8.91-1.97,13.61.1,4.5-1.2,8.76-1.14,13.21.06,4.48,0,8.95,0,13.43,0,7.23-.29,14.52-.06,21.74.16,4.91,1.63,8.44.61,13.47-.76,3.73-.56,7.39-.55,11.22,0,7.01,1.11,13.74,2.12,20.6,1.09,7.43,2.26,14.86,3.57,22.34.71,4.04,2.66,6.97,4.32,10.61,1.09,2.4,3.4,6.07,5.56,7.74"/>
              <g>
                <path class="cls-7" d="m425.6,156.5s-1-3,0-5,2-3,4-3,4,0,5,1c2,2,2,9,2,10,0,3-9,2-9,2l-2-5Z"/>
                <path class="cls-7" d="m461.6,248.5c-3-1-3-4-3-4h2v-26c0-2-3-4-4-5s0-3,0-3c0,0,3,1,3-4,0,0-2-3-2-5,0-1-2,1-2,0s2-1,2-3-6-10-7-12,0-9-3-16-10-7-10-7c0,0,1-15-12-10-2,1-3,5-3,5v4s2,2-1,3c0,0-10,3-10,14v13s1,3,1,4v7c0,2,3,3,3,5s-2,4-1,5,1,0,2,1,0,1,0,1l2,2,3-1v42s-6-1-3,4h5l7-1s1-35,1-36,2-4,3-8,0-8,3-7c0,0,7,5,9,5s2,2,4,5,0,4,0,11,1,18,1,18l1,4h12v-2c0-1,0-2-3-3Zm-42-49c.55,0,1,.45,1,1s-.45,1-1,1-1-.45-1-1,.45-1,1-1Zm-1,5c0-.55.45-1,1-1s1,.45,1,1-.45,1-1,1-1-.45-1-1Zm2,11c-.55,0-1-1.12-1-2.5s.45-2.5,1-2.5,1,1.12,1,2.5-.45,2.5-1,2.5Zm33-9c0,2-2-2-2-3s-3-2-4-4-3-4-3-6c-1-3,1-2,1-2l1,3,5,6s2,1,2,2v4Z"/>
              </g>
              <g>
                <path class="cls-8" d="m1123.72,228.34c.01-.08.02-.15.03-.23h-.53c.17.08.34.15.5.23Z"/>
                <path class="cls-8" d="m1133.2,257.16c-.65-1.22-1.29-2.44-1.89-3.68-1.44-2.97-2.88-5.95-4.45-8.85-1.39-2.55-3.63-5.09-4.22-7.99-.4-1.96.17-3.76.62-5.65.14-.61.26-1.23.36-1.85-2.43-.05-4.89.25-7.12,1.2-4.81,2.05-10.31,3.65-15.5,5.28-3.05.96-5.92,1.03-8.97,1.66-2.68.55-4.76-.13-7.73-.82-5.45-1.27-11.17-2.79-16.37-4.97-3.42-1.43-5.33-2.57-9.09-3.23-3.36-.59-6.69-1.34-10.11-1.28-3.37.06-5.86-.79-9.14-1.14-2.35-.25-4.98.61-7.28.11-7.19-1.55-14.93-2.02-22.46-2.25-5.84-.18-11.94-1.27-17.67-2.22-7.35-1.23-14.91-3.8-22.06-5.86-6.61-1.9-13.36-3.34-20.18-4.06-13.26-1.41-26.57-1.71-39.9-.2-3.59.41-6.69.14-10.08.96-2.27.55-5.06.98-7.33,1.26-4.88.6-9.92,1.09-14.54,2.21-4.56,1.11-9.19,1.82-13.7,3.43-2.96,1.05-6.12,2.31-9.16,3.07-3.94.99-7.07,2.32-10.86,3.61-7.51,2.55-13.47,7.36-20.59,10.55-7.2,3.23-13.94,7.65-21.31,10.56-8.56,3.37-17.25,6.16-25.82,9.49-5.97,2.32-12.27,3.67-18.58,4.71-2.71.45-5.74,1.27-8.49.99-1.75-.18-3.49-.51-5.22-.88,1.73,1.13,3.44,2.28,5.28,3.24,3.26,1.7,6.79,2.56,10.02,4.19,3.66,1.85,7.48,3.29,11.49,4.72,4.97,1.77,9.93,4.46,15.03,5.92,4.07,1.17,8.08,3.18,12.38,3.29,1.66.04,3.3-.23,4.94.08,2.48.48,4.51,2.08,6.82,3.01,2.74,1.11,5.65,1.77,8.41,2.83,1.68.65,3.19.75,4.89,1.16,2.81.67,5.34,1.98,8.2,2.49,10.08,1.79,20.91,4.05,30.33,8.2,10.51,4.62,22.4,6.96,33.62,9.25,7.35,1.5,15.4,2.51,22.47,5.07,4.18,1.52,8.61,2.09,12.69,3.89,3.5,1.54,6.9,3.44,10.38,4.93,3.47,1.48,6.78,2.1,10.23,3.84,2.59,1.31,5.25,2.51,7.81,3.88,2.58,1.38,4.54,3.24,6.92,4.85,2.91,1.97,6.39,3.26,9.52,4.85,16.98,8.66,36.56,11.18,54.87,15.53,6.79,1.62,14.07,4.23,21.02,4.85,8.62.78,17.42,3.43,25.34,6.8,11.95,5.1,24.43,9.1,35.7,15.55,3.6,2.06,7.18,4.01,11.15,5.07,1.75.47,3.41,1.3,5.31.59,2.77-1.04,4.56-4.09,5.8-6.54,1.02-2,1.99-3.94,2.9-5.88-.4-4.34.06-8.65-.48-12.98-.34-2.77-.83-5.34-.89-8.12-.11-5.36-.82-10.49-1.05-15.83-.21-4.87-1.19-9.45-1.11-14.38.11-6.94-1.17-14.03-1.97-20.92-1.22-10.43-1.68-20.83-1.41-31.35.14-5.57,2.14-10.6,2.23-16.21Z"/>
              </g>
              <g>
                <path class="cls-23" d="m962.22,313.27c2.52-1.24,4.95-1.74,7.07-3.63,1.72-1.53,2.01-1.1,3.84-1.84,2.02-.82,2.81-2.35,4.58-3.56s3.88-.89,5.68-2.02c1.07-.67,1.9-1.86,2.92-2.59,2.05-1.46,4.61-2.48,6.77-3.83,1.99-1.24,3.98-1.71,6.02-2.59,2.76-1.19,5.06-3.36,7.77-4.69,4.56-2.24,8.89-4.6,13.57-6.72,2.81-1.27,5.39-2.97,7.79-4.88,2.21-1.76,4.53-3.21,6.77-4.86,4.11-3.01,8.48-5.96,12.73-8.81s7.9-6.39,12.52-8.88c2.29-1.23,3.78-3.01,5.85-4.44,2.03-1.41,4.29-2.1,5.92-4.12,1.59-1.96,2-2.05,4.52-3.11s4.63-2.76,7.06-3.96c1.55-.77,3.18-.74,4.85-1.16,1.85-.46,3.6-1.14,5.42-1.47s4.06-.44,5.73-1.02c1.12-.39,1.61-1.3,2.63-1.93,1.36-.83,3.01-1.3,4.47-1.93,3.57-1.56,7.27-2.9,10.85-4.59,3.85-1.81,7.65-4.39,11.67-5.85,1.33-.48,3.57-1.54,4.85-1.06,1.6.6,3.4,3,4.83,3.98,4.61,3.14,8.68,5.61,10.71,10.97.85,2.24,1.27,4.45,2.3,6.65s1.9,5.05,2.36,7.48c1.32,6.98,2.12,14.08,3.37,21.09,1.41,7.89,3.15,15.76,4.62,23.64.34,1.84.16,3.9.54,5.81.54,2.77,1.35,5.53,1.45,8.37.13,3.84-.07,7.77-.07,11.6v23.54c0,6.24-.71,12.34-.95,18.54-.09,2.46-1.32,4.4-1.77,6.78-.38,2,.18,4.06-.36,6.02-.61,2.21-2.54,5.2-3.91,7.06-2.2,2.99-4.81,6.32-7.33,9.04-2,2.16-4.2,4.68-6.66,6.25-1.72,1.1-3.62,1.73-5.38,2.72-1.53.87-2.35,1.97-3.71,2.91-2.95,2.04-7.25,2.79-10.58,3.88-2.79.92-5.7,2.23-8.58,2.75-8.36,1.52-16.9,2.41-25.23,3.52-2.94.39-5.71.36-8.64.4-7.34.12-14.47,2.06-21.86,2.01-23.62-.17-47.09-.1-70.59-2.69-4.31-.48-8.97-.88-13.07-2.25-7.4-2.47-14.76-4.37-22.33-5.97-9.86-2.08-19.15-6.38-28.94-8.77-5.91-1.44-11.64-5.3-16.96-8.12-3.53-1.87-6.24-4.29-9.38-6.62-3.98-2.94-6.92-6.97-9.55-11.06-.61-.96-1.19-1.99-1.89-2.88-2.76-3.51-3.04-8.68-4.87-12.81-.88-2-1.26-3.55-.6-5.71,3.99-12.92,19.62-14.13,30.95-14.74,4.06-.22,8.08-.4,12.04-1.43,6.31-1.64,12.13-4.73,18.05-7.38,3.59-1.6,7.22-2.96,10.56-5.06s6.19-4.33,9.59-6.01Z"/>
                <g class="cls-24">
                  <g>
                    <path class="cls-9" d="m1123.72,228.34c.01-.08.02-.15.03-.23h-.53c.17.08.34.15.5.23Z"/>
                    <path class="cls-9" d="m1133.2,257.16c-.65-1.22-1.29-2.44-1.89-3.68-1.44-2.97-2.88-5.95-4.45-8.85-1.39-2.55-3.63-5.09-4.22-7.99-.4-1.96.17-3.76.62-5.65.14-.61.26-1.23.36-1.85-2.43-.05-4.89.25-7.12,1.2-4.81,2.05-10.31,3.65-15.5,5.28-3.05.96-5.92,1.03-8.97,1.66-2.68.55-4.76-.13-7.73-.82-5.45-1.27-11.17-2.79-16.37-4.97-3.42-1.43-5.33-2.57-9.09-3.23-3.36-.59-6.69-1.34-10.11-1.28-3.37.06-5.86-.79-9.14-1.14-2.35-.25-4.98.61-7.28.11-7.19-1.55-14.93-2.02-22.46-2.25-5.84-.18-11.94-1.27-17.67-2.22-7.35-1.23-14.91-3.8-22.06-5.86-6.61-1.9-13.36-3.34-20.18-4.06-13.26-1.41-26.57-1.71-39.9-.2-3.59.41-6.69.14-10.08.96-2.27.55-5.06.98-7.33,1.26-4.88.6-9.92,1.09-14.54,2.21-4.56,1.11-9.19,1.82-13.7,3.43-2.96,1.05-6.12,2.31-9.16,3.07-3.94.99-7.07,2.32-10.86,3.61-7.51,2.55-13.47,7.36-20.59,10.55-7.2,3.23-13.94,7.65-21.31,10.56-8.56,3.37-17.25,6.16-25.82,9.49-5.97,2.32-12.27,3.67-18.58,4.71-2.71.45-5.74,1.27-8.49.99-1.75-.18-3.49-.51-5.22-.88,1.73,1.13,3.44,2.28,5.28,3.24,3.26,1.7,6.79,2.56,10.02,4.19,3.66,1.85,7.48,3.29,11.49,4.72,4.97,1.77,9.93,4.46,15.03,5.92,4.07,1.17,8.08,3.18,12.38,3.29,1.66.04,3.3-.23,4.94.08,2.48.48,4.51,2.08,6.82,3.01,2.74,1.11,5.65,1.77,8.41,2.83,1.68.65,3.19.75,4.89,1.16,2.81.67,5.34,1.98,8.2,2.49,10.08,1.79,20.91,4.05,30.33,8.2,10.51,4.62,22.4,6.96,33.62,9.25,7.35,1.5,15.4,2.51,22.47,5.07,4.18,1.52,8.61,2.09,12.69,3.89,3.5,1.54,6.9,3.44,10.38,4.93,3.47,1.48,6.78,2.1,10.23,3.84,2.59,1.31,5.25,2.51,7.81,3.88,2.58,1.38,4.54,3.24,6.92,4.85,2.91,1.97,6.39,3.26,9.52,4.85,16.98,8.66,36.56,11.18,54.87,15.53,6.79,1.62,14.07,4.23,21.02,4.85,8.62.78,17.42,3.43,25.34,6.8,11.95,5.1,24.43,9.1,35.7,15.55,3.6,2.06,7.18,4.01,11.15,5.07,1.75.47,3.41,1.3,5.31.59,2.77-1.04,4.56-4.09,5.8-6.54,1.02-2,1.99-3.94,2.9-5.88-.4-4.34.06-8.65-.48-12.98-.34-2.77-.83-5.34-.89-8.12-.11-5.36-.82-10.49-1.05-15.83-.21-4.87-1.19-9.45-1.11-14.38.11-6.94-1.17-14.03-1.97-20.92-1.22-10.43-1.68-20.83-1.41-31.35.14-5.57,2.14-10.6,2.23-16.21Z"/>
                  </g>
                </g>
              </g>
              <g>
                <path class="cls-16" d="m1117.52,229.95c.11-.03.21-.07.32-.1-.11.03-.21.06-.32.1Z"/>
                <path class="cls-16" d="m1119.98,229.35c.09-.01.19-.02.29-.04-.1.01-.19.02-.29.04Z"/>
                <path class="cls-16" d="m1118.61,229.64c.11-.03.22-.06.33-.08-.11.02-.22.05-.33.08Z"/>
                <path class="cls-16" d="m1024.01,224.61c1.87.21,3.73.48,5.56.8-1.83-.32-3.69-.59-5.56-.8Z"/>
                <path class="cls-16" d="m1048.71,226.97c.86-.02,1.71.02,2.55.09-.85-.07-1.7-.11-2.55-.09Z"/>
                <path class="cls-16" d="m1039.57,225.83c.61.07,1.2.15,1.77.24-.57-.09-1.15-.18-1.77-.24-.29-.03-.59-.05-.89-.05.3,0,.6.02.89.05Z"/>
                <path class="cls-16" d="m1012.66,223.8c2.84.11,5.69.28,8.52.53-2.83-.25-5.68-.42-8.52-.53Z"/>
                <path class="cls-16" d="m1122.64,229.13c-.16,0-.32.01-.48.02.16,0,.32-.02.48-.02Z"/>
                <path class="cls-16" d="m1121.06,229.22c.16-.01.31-.03.47-.04-.16.01-.31.02-.47.04Z"/>
                <path class="cls-16" d="m1123.6,229.13s0,0,0,0c-.1.62-.22,1.24-.36,1.85-.44,1.89-1.02,3.69-.62,5.65.59,2.9,2.83,5.44,4.22,7.99,1.58,2.9,3.02,5.88,4.45,8.85.6,1.24,1.24,2.46,1.89,3.68-.08,4.8-1.54,9.16-2.05,13.81.54-4.79,2.09-9.29,2.07-14.27-.03-9.9-.19-19.79-4.32-28.33.33-.08.66-.17.98-.25h-6.14c0,.08-.02.15-.03.23-.17-.08-.34-.14-.5-.23.96.48,1.95.88,2.97,1.19-.85-.1-1.71-.16-2.58-.17Z"/>
                <path class="cls-16" d="m901.2,212.05c1.66-.29,3.28-.36,4.95-.44-1.67.07-3.28.15-4.95.44Z"/>
                <path class="cls-16" d="m1139.88,432.18c0-18.34-.19-36.8-1.98-55.04,0-.07,0-.14-.02-.2,0,0,0,.01,0,.02-.91,1.95-1.89,3.88-2.9,5.88-1.24,2.44-3.03,5.49-5.8,6.54-1.9.72-3.57-.12-5.31-.59-3.97-1.06-7.54-3-11.15-5.07-11.27-6.45-23.75-10.46-35.7-15.55-7.91-3.37-16.72-6.02-25.34-6.8-6.95-.63-14.22-3.24-21.02-4.85-18.32-4.36-37.89-6.87-54.87-15.53-3.13-1.6-6.61-2.88-9.52-4.85-2.38-1.61-4.34-3.48-6.92-4.85-2.56-1.37-5.22-2.57-7.81-3.88-3.45-1.74-6.75-2.36-10.23-3.84-3.48-1.49-6.88-3.39-10.38-4.93-4.08-1.79-8.51-2.37-12.69-3.89-7.07-2.56-15.13-3.57-22.47-5.07-11.22-2.29-23.11-4.63-33.62-9.25-9.42-4.15-20.25-6.41-30.33-8.2-2.86-.51-5.4-1.81-8.2-2.49-1.69-.41-3.2-.51-4.89-1.16-2.76-1.06-5.67-1.72-8.41-2.83-2.31-.93-4.34-2.54-6.82-3.01-1.65-.32-3.29-.04-4.94-.08-4.3-.1-8.31-2.12-12.38-3.29-5.1-1.46-10.07-4.15-15.03-5.92-4.01-1.43-7.83-2.87-11.49-4.72-3.22-1.63-6.76-2.48-10.02-4.19-1.84-.96-3.55-2.12-5.28-3.24,0,0,0,0,0,0-3.72-.79-7.42-1.79-11.17-2.11-5.89-.51-12.29-1.81-18.16-3.29-3.56-.9-7.02-1.84-10.59-2.48-3.29-.59-6.67-.98-9.88-1.98-5.18-1.61-10.37-1.87-15.53-3.34-6.08-1.73-11.92-3.57-18.01-5-5.84-1.37-12.21-1.93-17.88-3.89-2.62-.9-5.07-1.26-7.75-1.95-2.62-.67-5.22-.79-7.74-1.32-2.57-.54-4.9-1.87-7.54-2.32-3.01-.51-5.8-.86-8.92-1.05-2.85-.18-5.4-1.12-8.35-1.17-2.37-.04-4.77,0-7.14.02-3.23.03-6.04-1-9.22-1.13-2.46-.1-4.96.03-7.42.03-4.63,0-9.26,0-13.89,0-11,0-21.47,3.02-31.97,5.31-2.13.47-3.54.45-5.56,1.35-1.44.64-1.57.86-3.02,1.17-2.58.56-5.36.67-7.98,1.27-5.46,1.25-10.56,3.76-15.97,5.09-5.77,1.42-10.35,5.01-15.5,7.75-2.41,1.28-5.07,2.17-7.56,3.3-2.53,1.14-4.3,3.3-6.66,4.56-2.46,1.31-6.14,1.93-8.87,2.54-2.83.63-4.76,2.53-7.46,3.52-2.54.92-4.79,2.18-7.21,3.05-2.32.84-4.94,1.01-7.29,1.89-3.06,1.15-5.56,1.29-8.72,1.96-2.79.6-5.38,1.6-8.25,1.7-4.33.15-8.72-.02-13.05-.03-9.6,0-18.75-3.05-28-4.44-5.01-.76-10.19-2.08-15.25-2.19-4.63-.1-9.09-1.85-13.61-2.28-2.84-.27-6-.12-8.86,0-2.65.11-4.9,1.1-7.56,1.17-2.71.07-4.38.68-6.97,1.14-2.54.45-5.03-.12-7.65.5-3.42.81-6.84.14-10.26.8-3.29.64-6.6,1.13-9.81,1.73-5.7,1.07-11.43,1.81-17.16,2.57-10.98,1.46-20.28,8.68-30,13.25-4.86,2.29-9.5,5.09-13.96,8.03-2.31,1.53-4.55,2.4-6.66,4.14-2.85,2.35-6.09,4.33-9.36,6.04-3.07,1.6-6.53,2.47-9.52,4.23-2.3,1.35-4.36,2.52-6.97,3.39-2.46.82-4.99,1.3-7.45,2.16-1.8.63-3.98,1.24-5.69,1.98-1.22.52-2.07,1.5-3.26,2.04-1.12.5-2.38.06-3.58.37-1.58.41-2.61,1.7-4.22,2.09-1.98.49-3.49,1.2-5.5,1.92-4.83,1.73-9.69,3.16-14.53,4.99-2.21.83-4.33.95-6.58,1.65-2.13.67-4.46,1.3-6.66,1.41-2.55.13-4.3.7-6.69,1.14-2.09.38-4.65-.98-6.33.78,6.78,1.88,13.84,2.26,20.78,3.51,3.18.57,6.24.79,9.43,1.16,3.52.41,7.07,2.16,10.57,2.3,3.53.14,6.56,1.45,10.01,2.09,3.05.57,6.33-.23,9.39.19,2.27.32,4.22,1.05,6.64,1.03,1.6-.02,3.19.01,4.79,0,3.53-.04,6.51,1.13,10.03,1.1,12.66-.11,25.33,0,37.99,0,6.3,0,13.47-.87,19.51.56,3.26.77,6.64.31,9.97,1.11,2.95.71,5.98.53,8.89,1.11,6.03,1.2,12.37,3.26,18.3,4.75,5,1.26,10.33,2.09,15.45,2.49,3,.23,5.05,1.8,7.67,3.06,2.55,1.23,5.16,2.25,7.78,3.31,12.34,4.99,25.15,8.94,37.69,13.6,3.77,1.4,7.42,2.24,11.31,3.25,5.33,1.4,10.26,3.73,15.52,5.34,4.48,1.06,8.9,2.33,13.25,3.82,4.2,1.74,8.37,3.55,12.52,5.43,3.94,1.58,7.96,2.93,11.95,4.38,7.43,2.71,13.98,6.09,20.95,9.73,4.75,2.48,9.82,4.15,14.65,6.44,16.88,8.01,33.23,17.51,49.67,26.39,20.08,10.85,40.81,21.33,61.56,30.8,24.27,11.08,48.44,22.4,73.95,30.35,51.14,15.93,104.1,26.3,156.81,35.5,43.09,7.52,86.72,12.16,130.27,16.14,43.31,3.95,86.77,7.27,130.26,8.37,10.26.26,20.44-.43,30.68-.38,2.04.01,4.09,0,6.13,0,1.13,0,6.54.75,7.36-.17.96-1.07.19-6.48.17-7.66-.04-2.45,1.01-3.57,1.14-5.93.21-3.9,1.11-7.71,1.11-11.59,0-2.5.65-2.57,1.14-4.57.48-1.97.38-4.56.78-6.64.45-2.36.56-4.86.84-7.24.63-5.47.26-10.84.55-16.32.11-2.04.71-2.58,1.16-4.27.26-.95-.15-2.43-.11-3.41.12-3.24.86-6.51,1.17-9.74.71-7.61,1.97-15.22,2.28-22.86.37-9.21-.06-18.52-.06-27.74Z"/>
                <path class="cls-16" d="m783.09,254.07c4.31-1.56,8.63-3.06,12.93-4.64-4.31,1.57-8.63,3.07-12.93,4.64Z"/>
                <path class="cls-16" d="m831.43,232.37c2.49-1.45,4.95-2.92,7.54-4.21-2.59,1.29-5.06,2.76-7.54,4.21Z"/>
                <path class="cls-16" d="m831.43,232.37c-2.49,1.45-4.99,2.87-7.67,4.07-.9.4-1.79.83-2.68,1.26.89-.44,1.78-.86,2.68-1.26,2.67-1.2,5.18-2.62,7.67-4.07Z"/>
                <path class="cls-16" d="m746.61,261.74c.16.03.33.06.49.09-.16-.03-.33-.06-.49-.09Z"/>
                <path class="cls-16" d="m1005.41,223.41c1.48.14,2.96.24,4.42.29-1.46-.05-2.93-.15-4.42-.29Z"/>
                <path class="cls-16" d="m998.73,222.55c-2.22-.34-4.42-.72-6.57-1.08-.92-.15-1.84-.33-2.77-.52.92.19,1.85.37,2.77.52,2.15.36,4.35.74,6.57,1.08Z"/>
                <path class="cls-16" d="m915.02,210.87c5-.4,9.99-.56,14.98-.51-4.99-.05-9.98.11-14.98.51Z"/>
                <path class="cls-16" d="m1000.95,222.87c1.49.21,2.98.39,4.46.53-1.48-.14-2.97-.33-4.46-.53Z"/>
                <path class="cls-16" d="m915.02,210.87c-1.67.13-3.33.29-5,.48-.45.05-.89.09-1.33.12.44-.03.88-.07,1.33-.12,1.67-.19,3.33-.35,5-.48Z"/>
                <path class="cls-16" d="m857.52,221.63c-.77.24-1.54.46-2.3.65-.49.12-.97.25-1.44.39.47-.13.95-.26,1.44-.39.76-.19,1.53-.41,2.3-.65Z"/>
                <path class="cls-16" d="m845.75,225.41c-.46.16-.92.32-1.39.48-.94.32-1.85.67-2.75,1.05.9-.38,1.81-.74,2.75-1.05.47-.16.94-.32,1.39-.48Z"/>
              </g>
              <path class="cls-7" d="m-247.9,741.44c2.44-2.17,5.45-3.26,7.78-5.53,2.8-2.73,5.93-4.78,8.64-7.53,2.29-2.33,4.55-4.72,6.92-6.97,2.69-2.56,5.98-4.43,8.88-6.74,3.21-2.55,6.47-5.21,9.36-8.13,2.44-2.46,4.82-5.54,7.8-7.32,4.1-2.44,7.56-5.43,11.27-8.53,2.38-1.99,4.38-4.4,6.61-6.56,1.91-1.85,4.22-3.14,6.16-4.92,3.24-2.99,5.69-6.91,8.86-10.05,3.33-3.3,6.63-6.64,9.95-9.95,6.13-6.13,11.78-12.8,18.38-18.42,6.11-5.2,12.46-10.39,18.28-16.04,5.07-4.93,12.09-6.4,17.84-10.01,3.43-2.15,7.52-3.25,11.13-5.28,3.08-1.73,6.01-3.55,8.81-5.67,6.33-4.79,12.62-9.98,15.52-17.56,2.99-7.78,6.7-15.45,10.89-22.69,3.58-6.18,7.66-12.53,12.42-17.92,8.94-10.11,22.62-20.08,36.16-22,3.04-.43,5.67-1.12,8.89-1.09s6.95.39,10.2-.21c3.02-.56,9.31-1.56,11.05-4.44,1.44-2.39,1.6-5.94,2.89-8.55,1.54-3.12,2.21-6.86,4.08-9.81,1.19-1.88,3.18-3.08,4.61-4.74,1.35-1.57,2.14-3.25,3.78-4.49,5.38-4.09,13.04-6.03,19.5-7.75s12.56-1.13,18.92-1.1c6.77.04,13.81-.85,19.96-3.63,2.73-1.24,4.93-1.03,7.53-3.01,2.67-2.03,4.45-4.58,7.46-6.14,2.81-1.45,13.02-3.83,17.09-2.15,4.39,1.81,8.27,7.47,11.52,10.79,3.83,3.9,7.48,7.1,13.31,6.43,4.87-.56,9.17-2.23,14.19-2.28,4.28-.04,7.74,2.51,11.59,3.37,6.97,1.55,11.52-4.85,16.3-8.47,3.59-2.72,6.61-6.27,9.93-9.36,4.75-4.42,9.05-9.21,13.98-13.46,5.65-4.88,11.56-9.74,16.77-15.09,5.79-5.95,12.75-10.38,18.57-16.26,3.76-3.79,7.02-8.02,10.78-11.82,3.18-3.21,6.06-6.75,8.31-10.68,1.56-2.72,2.79-5.62,4.43-8.3,5.76-9.42,14.49-17.46,22.25-25.08,3.98-3.91,7.26-8.37,11.22-12.33,4.3-4.31,9.29-8.11,13.42-12.53,3.41-3.64,6.56-7.46,10.14-11.03,3.84-3.84,7.98-7.09,11.89-10.74,3.53-3.3,7.42-6.48,10.16-10.49.94-1.38,2.04-2.86,2.79-4.36,1.03-2.07,1.88-3.68,3.06-5.59,4.02-6.53,7.4-13.52,11.36-20.1,2.31-3.83,5.31-7.12,9.81-8.15,4.07-.94,8.43-.25,12.57-.23,2.67.01,5.34-.13,7.98-.53,3.05-.46,6.15-1.15,8.88-2.63,8.06-4.38,10.09-14.45,15.52-21.2,1.76-2.19,1.95-5.83,4.39-7.59,1-.72,2.21-.84,3.33-1.36,2.01-.94,2.31-1.55,4.76-1.59,3.09-.05,5.68-.13,8.08,2.19,1.16,1.12,2.22,2.69,3.28,3.93,1.48,1.75,2.8,2.74,4.44,4.08,2.66,2.17,4.82,6.15,6.69,9.01.85,1.31,1.52,2.94,2.42,4.17,1.28,1.75,3.23,2.82,4.7,4.41,2.31,2.51,3.48,5.64,5.63,8.24,1.02,1.23,2.2,2.31,3.36,3.42,1.89,1.81,2.03,3.34,3.38,5.47,1.44,2.3,5.38,4.24,7.82,5.51,2.85,1.48,5.14,2.59,8.18,3.19,5.86,1.16,12.52-.1,18.43,1.39,2.67.67,5.51.14,8,1.59,3.28,1.91,6.27,4.47,9.7,6.19,6.04,3.04,10.94,8.07,17.24,10.86,6.88,3.05,13.12,6.87,20.05,9.67,2.49,1,4.42,3.05,6.89,4.23,1.4.67,3.17.58,4.28,1.82,1.55,1.72.86,2.96,3.19,4.05,3.03,1.42,6.6.25,9.8-.34,4.47-.83,8.67,1.17,12.88,3.49,3.29,1.81,6.76,2.85,10.06,4.51,1.36.69,2.04,1.84,3.28,2.63,4.05,2.59,9.48,3.29,13.8,5.55,6.19,3.24,12.66,8.38,19.99,6.6,2.21-.54,4.57-1.9,6.89-1.49,1.41.25,3.3,1.25,4.3,2.28,1.53,1.57,1.02,1.97,1.24,3.91.3,2.6,1.6,5.6,2.54,8.08,1.34,3.55,3.93,4.15,6.97,6.26,5.63,3.9,10.92,8.48,16.89,11.72,3.18,1.72,5.26,4.79,8.3,6.48,1.95,1.08,3.92,1.59,5.76,3.01,1.68,1.3,3.33,2.83,5.13,3.95,6,3.72,12.68,3.28,19.45,3.28,3.72,0,7.45.04,11.17,0s6.74.95,10.22,1.08c4.12.15,7.9,1.15,12.05,1.14,3.87-.01,7.75,0,11.62,0,3.24,0,6.48.02,9.72,0,4.2-.02,8.17.95,12.32,1.14s8.45-.02,12.65-.03c3.66,0,6.84.56,10.37,1.11,3.09.48,5.74.93,8.91,1.07,3.51.16,6.23,2.11,9.83,2.26,4.07.18,8.28.65,12.32,1.22s8,2.19,12.2,2.14c6.8-.09,13,.89,19.69,1.06,13.67.34,25.01,9.13,38.36,11.17,17.95,2.74,37.01,5.11,54.24,11.79,3.27,1.27,6.03,2.91,9.47,3.78,1.47.37,3.01.54,4.37,1.31,2.88,1.62,5.6,3.23,8.73,4.65,7.79,3.52,15.82,6.38,23.22,10.69,5.66,3.3,10.56,7.54,15.77,11.33,2.65,1.93,5.29,4.29,7.81,6.42,3.53,2.98,6.24,6.12,9.41,9.49,2.91,3.09,5.49,6.28,8.28,9.42,3.63,4.06,6.83,8.61,10.64,12.51,2.46,2.52,4.11,5.5,6.63,8.04,2.84,2.86,6.49,4.25,9.35,7.13,7.7,7.74,17.78,13.52,24.55,22.06,1.53,1.93,4.31,4.13,4.54,6.81.17,1.99-1.2,4.49-1.28,6.58-.07,1.82,0,3.7.02,5.52.06,4.48.73,9.1,1.11,13.56.18,2.03,1.08,3.75,1.21,5.81.17,2.72-.19,5.42.04,8.15.68,8.26,2.99,16.36,3.24,24.58.18,5.87,1.87,11.46,3.1,17.1.34,1.55.09,3.06.32,4.63.52,3.68,1.11,7.03,1.05,10.82-.06,3.25.95,5.95,1.11,9.12.19,3.98-.03,8.05-.03,12.04,0,8.87.72,17.64,2.13,26.23.23,1.4.03,2.75.04,4.15.03,4.2.89,8.4,1.58,12.54.78,4.69,1.87,8.9,1.81,13.63-.12,9.42,1.11,18.79,1.11,28.24v14.23c0,3.6.77,8.42-.17,11.95-3.86.83-8.2-.17-12.01-.75-2.53-.38-5.05-.18-7.62-.22-3.82-.06-7.46-.95-11.23-1.16-6-.33-11.85,1.03-17.81,1.13-11.97.2-23.95,0-35.92,0-6.07,0-12.95-.82-18.92.09-9.71,1.48-19.8,1.12-29.68,1.02-4.5-.05-8.78.95-13.22,1.16-5.09.24-10.27-.06-15.37-.06h-43.58c-13.46,0-26.73-1.42-40.12-2.28-10.65-.69-21.69.06-32.37.06-4.03,0-8.06-.07-12.09-.03-1.53.02-2.75.04-4.31.27-4.15.63-7.93.87-12.23.86-10.44-.03-20.81-.28-31.17.87s-22.34.25-33.25.25h-85.65c-14.35,0-29.09.85-43.41-.56-4.77-.47-9.27-.42-14.04-.5-6.79-.11-13.43-1.1-20.23-1.09-12.32.03-24.85-1.7-37.08-3.19-3.54-.43-7.29-1.28-10.81-1.36-18.86-.43-37.73-1.07-56.6-1.09-13.47,0-26.85-1.11-40.32-1.11-9.9,0-20.2-.9-30.03.25-8.8,1.03-17.45.68-26.33.81-5.19.07-10.1,1.16-15.29,1.17-4.87,0-9.74,0-14.62,0-23.81,0-47.39,2.22-71.24,2.22-20.53,0-40.88,2.93-61.36,3.28-5.94.1-11.72,1.06-17.66,1.12s-11.86,1.9-17.73,2.3c-6.12.42-12.45.02-18.6-.03-7.81-.05-15.53,1.2-23.35,1.14-26.17-.23-52.35,0-78.53-.03-4.72,0-9.39.1-14.12-.25-7.35-.53-14.59-.6-21.93-1.11-16.83-1.17-33.72-1.2-50.56-2.22-7.51-.46-15-.6-22.49-1.11-5.35-.37-10.7-.82-16.07-.92-3.51-.07-7.72.69-11.22.11-1.48-.24-2.56-.81-3.97-1.23-7.51.08-15.02.12-22.54.12-7.83.1-15.65-.21-23.45-.93-4.66-.34-9.29-.25-13.95-.25-7.23,0-14.46,0-21.69,0-7.47,0-14.78.84-22.21,1.17-10.48.46-21.2.05-31.7-.08-5.2-.07-10.17,1.17-15.37,1.13-6.37-.05-12.75,0-19.12,0-5.61,0-10.9-.16-16.48-.86-2.29-.29-7.6.78-9.07-1.25-.47-.65-.79-3.54-.97-4.31-.46-1.88-1.1-3.65-1.42-5.55-.48-2.81-1.1-5.11-1.08-8.08.02-2.55-.13-5.12-.03-7.66.12-2.94.65-8.33,3.36-10.06"/>
              <g class="cls-19">
                <path class="cls-15" d="m508.43,340.58c2.59-1.55,6.63-3.04,8.73-5.4,1.91-2.14,1.88-4.28,2.3-6.82.4-2.46,1.61-4.79,2.02-7.25.87-5.13,3.98-11.96-.15-16.5-1.55-1.71-3.7-2.73-5.2-4.5-2.37-2.79-3.75-6.31-4.73-10.03-3.55-.05-7.13.07-10.46-.58-3.05-.6-5.33-1.7-8.18-3.19-2.44-1.27-6.38-3.22-7.82-5.51-1.34-2.14-1.48-3.66-3.38-5.47-1.15-1.1-2.34-2.18-3.36-3.42-2.15-2.6-3.32-5.73-5.63-8.24-1.47-1.6-3.41-2.67-4.7-4.41-.9-1.23-1.56-2.86-2.42-4.17-.84-1.28-1.73-2.78-2.7-4.24-2.47-.39-5.06.3-6.84,2.3-2.91,3.26-5.31,7.64-6.11,11.91-.56,2.98.48,6.34,1.45,9.2.81,2.39,2.32,4.63,3.51,6.84,1.72,3.17,3.11,6.54,4.9,9.65,1.18,2.06,2.8,3.81,4,5.85,3.65,6.21,3.67,14.25,5.59,21.03.87,3.08.15,5.33-.68,8.39-.88,3.22-2.41,5.18-2.46,8.57-.07,3.89-2.25,4.81-4.88,7.36-2.68,2.6-5.48,3.47-8.52,5.59-3.49,2.43-6.92,4.5-10.69,6.54-3.54,1.91-6.27,5.45-9.57,7.77-3.52,2.47-6.89,3.54-10.8,5.1-6.81,2.73-14.36,3.59-21,6.66-3.11,1.44-6.67,3.11-10.26,3.33-3.27.2-6.21.17-9.42-.04-3.58-.23-7.01-1.06-10.54-1.72-1.5-.28-2.87-.23-4.39-.2-2.24.04-3.62-.49-5.75-.9-2.36-.46-6.1-.45-8.28.37-1.07.4-2.28.98-3.31,1.42-2.18.93-3.14,2.59-4.93,4.03-2.07,1.67-4.51,1.96-6.77,3.01-3.47,1.61-5.14,6.67-7.28,9.57-4.22,5.72-13.28,4.83-19.79,4.83s-13.97,1.02-19.31-2.41c-3.14-2.02-6.56-3.9-10.16-5.08-.35.53-.68,1.06-1.01,1.59-1.64,2.68-2.87,5.58-4.43,8.3-2.26,3.92-5.13,7.47-8.31,10.68-3.76,3.79-7.03,8.02-10.78,11.82-5.82,5.88-12.78,10.31-18.57,16.26-2.29,2.35-4.71,4.6-7.19,6.8l2.96.59c-.21-.21-.41-.43-.62-.64,2.2,1.86,2.94,4.27,5.69,5.78,2.79,1.52,7.37,2.8,10.54,2.67,3.06-.12,7.4-.97,10.07-2.35,2.71-1.41,5.19-1.89,8.09-2.78,2.61-.81,5.1-.73,7.95-.73,3.34,0,5.95-.25,9.16-1.08,2.93-.76,5.33-2.57,8.3-3.29,3.85-.94,7.8.02,11.67-.69,3.66-.67,7.32-.62,10.89-1.49,3.35-.81,8.04-.85,10.97-2.72.58-.37.86-1.04,1.4-1.43.82-.6,2.06-.63,2.8-1.16,1.17-.83,1.7-2.1,2.55-3.28,2.2-3.04,4.27-5.23,8.02-5.99,3.27-.66,5.5-.03,8.25,1.69,2.71,1.69,6.52,3.62,9.85,2.87,2.37-.53,5.23-1.81,7.6-1.72,3.7.13,7.24,3.57,10.44,5.02,2.52,1.14,6.32-.36,8.76-1.47,2.78-1.27,5.9-2.99,8.53-4.61,2.8-1.73,5.23-4.18,8.22-5.66,3.2-1.58,6.88-3.15,10.19-4.37,2.85-1.05,5.8-1.86,8.56-3.13,2.96-1.37,6.67-2.38,9.2-4.34,5.43-4.2,12.35-4.44,17.95-8.19,1.39-.93,3.28-1.16,4.46-2.47.97-1.08,1.68-2.98,2.24-4.33,1.42-3.37,3.34-6.05,6.44-8.43,4.68-3.6,11.02-5.16,16.06-8.25,3.05-1.87,5.94-4.21,9.13-5.77,3.93-1.92,7.72-3.38,10.91-6.49,2.68-2.62,4.46-4.88,4.65-8.71.17-3.52-.34-6.65.82-10.03.97-2.84,2.84-6.04,5.55-7.66Z"/>
              </g>
              <g class="cls-19">
                <path class="cls-15" d="m889.05,411.42c-1.09-.03-2.17-.08-3.24-.14.22.5.69,1.15.76,1.55.11.62-.21,1.32-.11,1.94.35,2.09,1.12,2.23.56,4.37-.42,1.6-1.1,2.88-1.83,4.38-1.47,3.01-3.85,5.27-5.9,7.95-5.42,7.09-12.94,11.46-19.96,16.81-1.86,1.42-3.68,2.48-5.8,3.41-1.95.86-3.93,1-5.87,1.89-3.67,1.68-7.18,3.66-10.75,5.57-4.45,2.38-8.11,5.62-12.02,8.75-3.94,3.15-7.97,6.38-11.24,10.22-3.09,3.63-4.88,7.81-7.74,11.65-2.15,2.89-3.86,7.2-4.62,10.73-.56,2.61-2.11,4.85-2.23,7.53-.09,2.01-.24,3.13-.68,5.02-.73,3.13-.86,6.32-1.16,9.5-.17,1.85-.94,3.45-1.03,5.34-.08,1.63.04,3.3.04,4.94,0,4.09,0,8.18,0,12.27v14.01c0,4.28.66,9.16-.08,13.36-.43,2.44-.9,4.29-.88,6.9.01,1.77.24,3.77.05,5.53-.22,1.97-.99,3.64-1.04,5.66-.05,1.71-.05,2.77-.46,4.41-.83,3.32-1.34,6.88-2.38,10.09-.66,2.05-1.72,3.63-2.02,5.87-.3,2.25-.98,4.14-1.89,6.23-2.17,5.02-3.99,10.22-6.07,15.3-.98,2.38-2.42,4.49-3.44,6.84-.86,1.98-1.27,4.02-2.59,5.83-2.84,3.87-5.62,7.62-8.31,11.66-1.28,1.93-2.41,4.1-4,5.79-2.03,2.17-4.65,3.63-6.65,5.83-3.45,3.79-7.59,7.9-11.71,10.99-1.82,1.36-4.11,2.66-5.63,4.33-1.92,2.11-2.32,3.27-4.98,4.83-2.32,1.35-5.07,2.74-7.2,4.32-2.57,1.92-4.47,4.09-7.31,5.81-5.03,3.04-9.4,7.09-14.7,9.72-2.11,1.05-3.76,2.18-5.72,3.48-2.2,1.46-4.55,1.99-6.89,3.13-2.07,1.01-3.85,2.66-5.83,3.74-1.2.66-1.55.48-2.67.9-1.19.45-1.61.76-2.7,1.41-2.3,1.37-4.39,2.91-6.98,3.73-1.87.6-3.56.7-5.29,1.6-3.83,2-7.64,3.66-11.7,5.15-8.69,3.18-16.55,7.79-23.3,14.56-1.93,1.93-3.79,4.01-5.8,5.85-1.55,1.41-3.4,2.03-4.63,3.76-1.49,2.09-2.24,4.08-4.12,5.9-1.78,1.72-3.05,3.01-2.68,5.61h1.94c-.21.08-.43.16-.64.24.61.78,2.68.97,3.64,1.21,1.7.43,3.48,1.13,5.27,1.37,3.44.47,6.71.78,10.19,1.14,2.98.31,5.79,1.75,8.75,1.89,2.01.1,3.01.35,4.96.95,4.28,1.31,8.81,1.73,13.18,2.42,4.2.67,8.25.31,12.34,1.24,3.91.89,8.61.22,12.62.22,2.85,0,5.73-.09,8.58-.02.72.02,1.43.12,2.12.26h10.1c.39-.08.78-.16,1.17-.22,2.42-.38,3.01-.73,4.1-2.91.96-1.93,1.33-4.03,2.56-5.79,1.43-2.06,3.52-3.55,4.74-5.85,1.55-2.94,2.45-4.54,4.9-6.87,1.77-1.68,2.54-3.95,4.07-5.85,7.23-9.01,15.37-17.75,23.88-25.85,3.86-3.67,8.99-6.52,13.38-9.56,1.53-1.06,3.37-1.68,4.82-2.81,3.06-2.39,5.52-4.16,9.19-5.97,4.99-2.46,9.77-4.6,14.8-6.78,4.43-1.92,9.02-4.19,13.14-6.67,2.73-1.64,5.63-3.16,8.4-4.68,1.86-1.02,3.04-2.25,4.7-3.55,4.35-3.42,9.34-6.56,13.21-10.47,2.66-2.69,5.07-5.61,7.86-8.12,1.87-1.69,3.12-3.71,4.83-5.59,3.15-3.46,5.62-7.13,8.25-10.95,5.7-8.26,11.35-17.85,13.13-27.93.32-1.79,0-3.56.27-5.34.4-2.61,1.27-5.67,1.86-8.3.81-3.56,1.88-7.04,1.97-10.82.1-4.59-1.02-8.95-.99-13.57.03-4.55,0-9.1,0-13.65,0-5.14.12-9.89.89-14.92.59-3.87.43-7.53,1.63-11.39,1.41-4.53,1.47-9.88,3.52-14.23,1.75-3.71,3.33-7.58,5.59-11.01,1.72-2.62,2.77-5.18,4.85-7.55,1.71-1.94,3.07-4.08,4.91-5.93,3.79-3.82,7.12-7.98,10.82-11.82,3-3.11,6.62-5.53,9.66-8.62,1.55-1.57,3.04-3.29,4.69-4.76,2.24-2,4.77-4.14,7.18-5.94,1.47-1.1,3.09-1.66,4.41-2.91,4.48-4.22,8.56-8.99,13.8-12.34,3.26-2.08,5.6-4.92,7.93-7.98,1.2-1.58,2.87-2.73,4.03-4.32.96-1.32,1.38-2.92,2.13-4.36,1.21-2.32,1.63-2.67.87-5.26-.39-1.33-.73-2.76-1.43-3.98-1.83-3.18-5.77-4.27-8.59-6.25-.13-.09-.25-.18-.37-.28-7.71-1.37-15.45-2.46-22.98-3.61-13.35-2.04-24.69-10.83-38.36-11.17Z"/>
              </g>
              <g>
                <g class="cls-21">
                  <path class="cls-15" d="m383.28,386.12c-.43-1.09-1.03-2.22-1.69-3.34-.26,1.52-.05,2.93,1.69,3.34Z"/>
                </g>
                <g class="cls-21">
                  <path class="cls-15" d="m417.94,265.5c-.9.79-1.88,1.5-2.99,2.1-2.73,1.48-5.83,2.17-8.88,2.63-2.64.4-5.31.54-7.98.53-4.13-.02-8.49-.7-12.57.23-4.5,1.03-7.5,4.31-9.81,8.15-3.96,6.59-7.34,13.57-11.36,20.1-1.17,1.9-2.03,3.52-3.06,5.59-.75,1.5-1.84,2.99-2.79,4.36-2.74,4.01-6.63,7.19-10.16,10.49-3.91,3.65-8.05,6.9-11.89,10.74-3.57,3.57-6.73,7.38-10.14,11.03-3.56,3.81-7.76,7.16-11.6,10.78-.12,1.72-.07,3.46-.06,5.29,0,1.47.23,3.11.05,4.56-.15,1.24-2.05,4.27-.15,4.85,2.92-1.05,3.89-5.13,5.19-7.52,1.6-2.93,2.63-4.2,5.61-5.55,2.47-1.12,5.09-2.15,7.06-4.08,2.01-1.99,2.73-5.36,5.54-6.67,1.89-.88,4.3-1.33,6.27-2.1,1.26-.49,2.58-1.21,3.84-1.63,2.1-.69,1.43-.93,3.48.39,4.69,3.04,3.7,8.06,4.65,13.04.23,1.22-.52,9.24,3.2,8.01,1.07-.36,1.03-2.04,1.44-2.91.64-1.35,1.69-2.52,2.41-3.85.74-1.37,1.97-6.27,4.39-5.23,1.04.45,3,4.64,3.37,5.7.9,2.58,1.81,4.64,3.13,7.04.8,1.45,1.6,2.81,1.78,4.47.1,1-.3,2.09-.12,3.08.46,2.62,1.24,6.05,2.56,8.39.94,1.66,2.18,3.47,3.25,5.28.25-1.47.92-3.03,1.05-3.89.42-2.76-.02-5.97-.02-8.76,0-3.19-.05-5.77-.75-8.74-.69-2.92-.34-5.82-1.07-8.77-1.24-5.03-2.61-10.39-2.11-15.73.28-3.03,1.8-5.74,2.01-8.71.22-3.17.27-6.79.01-9.98-.28-3.46-1.6-5.85-.3-9.22,1.08-2.79,1.54-5.45,3.14-8.03,1.8-2.92,4.7-4.19,5.62-7.53,1.22-4.41,1.49-5.86,5.85-7.55,2.48-.96,4.42-2.3,6.26-4.1,2.32-2.27,4.42-2.64,7.31-4.1,4.78-2.42,8.07-7.09,9.35-12.18Z"/>
                </g>
              </g>
              <g class="cls-25">
                <path class="cls-11" d="m691.33,389.15c1.46,1.51,3.75,4.38,5.82,5.04,2.61.84,5.11,1.09,7.79,2.13,1.73.67,2.99,1,4.85.97,1.35-.03,2.77-.35,3.96.47-.3-.1-.4-.13-.66-.16,1.06.66,2.2,1.19,3.26,1.85,8,4.92,19.9,3.16,28.61.99,1.59-.4,3.19-.75,4.79-1.08-.85-.09-1.71-.14-2.59-.13-3.72.04-7.45,0-11.17,0-6.77,0-13.45.44-19.45-3.28-1.8-1.12-3.45-2.66-5.13-3.95-1.84-1.42-3.82-1.93-5.76-3.01-3.05-1.69-5.12-4.75-8.3-6.48-5.97-3.23-11.26-7.81-16.89-11.72-3.04-2.11-5.63-2.7-6.97-6.26-.94-2.48-2.24-5.48-2.54-8.08-.23-1.95.29-2.35-1.24-3.91-1-1.02-2.89-2.03-4.3-2.28-2.33-.41-4.69.95-6.89,1.49-7.32,1.78-13.8-3.37-19.99-6.6-4.32-2.26-9.74-2.96-13.8-5.55-1.24-.79-1.92-1.95-3.28-2.63-3.29-1.66-6.77-2.7-10.06-4.51-4.21-2.32-8.41-4.32-12.88-3.49-3.2.59-6.77,1.76-9.8.34-2.33-1.09-1.65-2.33-3.19-4.05-1.11-1.24-2.88-1.15-4.28-1.82-2.46-1.18-4.39-3.23-6.89-4.23-6.94-2.79-13.17-6.61-20.05-9.67-6.3-2.79-11.2-7.82-17.24-10.86-3.43-1.72-6.42-4.28-9.7-6.19-2.49-1.45-5.33-.91-8-1.59-5.91-1.49-12.57-.24-18.43-1.39-3.05-.6-5.33-1.7-8.18-3.19-2.44-1.27-6.38-3.22-7.82-5.51-1.34-2.14-1.48-3.66-3.38-5.47-1.15-1.1-2.34-2.18-3.36-3.42-2.15-2.6-3.32-5.73-5.63-8.24-1.47-1.6-3.41-2.67-4.7-4.41-.9-1.23-1.56-2.86-2.42-4.17-1.87-2.86-4.03-6.84-6.69-9.01-1.64-1.34-2.96-2.34-4.44-4.08-1.06-1.24-2.12-2.81-3.28-3.93-1.35-1.3-2.75-1.84-4.27-2.06-.02.68-.08,1.37-.08,2.01,0,3.19-.6,7.14.45,10.16.92,2.65,2.55,5.04,3.43,7.58,1.22,3.52,3.19,6.69,5.83,9.49,2.23,2.38,4.49,4.48,6.81,6.79,2.43,2.42,4.13,5.35,6.76,7.57,2.59,2.18,5.52,4.12,7.57,7,.92,1.29,1.07,2.08,2.6,2.96,1.69.97,3.34,1.07,4.9,2.36,2.28,1.89,4.85,2.85,7.47,4.18,3.59,1.82,7.78.95,11.3,2.51,1.5.67,2.35,1.98,3.63,2.9,1.14.82,2.19,1.11,3.56,1.36,4.57.83,8.73,1.22,13.36,1.21,2.62,0,4.27.07,6.55,1.21,1.97.99,3.78,2.4,5.66,3.64,4.38,2.89,10.09,3.64,14.47,6.37,1.36.85,2.54,1.99,3.93,2.86.96.6,1.96,1.22,2.77,2.04,1.49,1.51,2.68,3.28,4.45,4.5,2.05,1.42,3.97,2.5,6.42,3.17,2.94.8,6.03.61,8.9,1.64,2.36.84,5.11,2.31,7.56,3.29,3.82,1.53,7.41,3.05,11.32,4.05,5.16,1.31,11.84.92,15.53,5.07,1.84,2.07,4.06,3.54,6.63,4.66,2.45,1.07,4.66,1.04,7.26,1.67,6.35,1.56,12.58,3.33,17.02,8.83.85,1.05,1.07,2.14,2.13,3.06,1.53,1.32,2.27.86,4.16,1.31,1.97.46,3.34,1.15,5.54.93,2-.21,4.51-1.77,6.48-.82-.36,1.2-1.61,2.34-2.12,3.66-.93,2.4.09,3.1,1.29,5.4.64,1.23.42,3.17,1.11,4.14,1.17,1.65,3.9,1.38,5.64,1.13,2.4-.35,4.99-2.74,7.33-2.83,1.45-.06,3.12,1.13,4.38,1.9,1.49.91,2.07,2.22,3.32,3.3,1.69,1.47,2.5,1.96,3.79,3.98,1.57,2.45,3.41,4.8,5.43,6.9Z"/>
              </g>
              <path class="cls-10" d="m410.53,156.99c-.03-.05.11-.18.14-.22.11-.11.2-.25.33-.34.11-.07.21-.12.33-.08.13.04.26.17.35.27.19.22.37.45.54.69.08.12.14.23.21.36s.14.24.19.38l.37-.15c-.09-.13-.19-.24-.28-.37-.1-.15-.17-.31-.24-.47s-.12-.3-.16-.47-.1-.33-.06-.51c.06-.28.22-.52.5-.61.15-.05.27-.01.4.07.12.08.18.21.3.28.22.14.42-.21.2-.35.07.04,0-.02-.02-.04-.03-.03-.06-.07-.09-.1-.07-.07-.16-.13-.25-.18-.17-.1-.37-.13-.56-.09-.36.07-.68.35-.8.69-.07.2-.11.39-.08.6.02.19.07.41.14.59.08.22.19.44.3.64.1.19.24.34.36.52s.45.07.37-.15c-.03-.09-.06-.19-.11-.28s-.1-.16-.14-.25c-.08-.18-.2-.35-.32-.5-.24-.31-.48-.67-.83-.87-.14-.08-.33-.15-.5-.11-.18.04-.37.17-.5.31-.22.24-.64.56-.43.94.12.23.47.02.35-.2h0Z"/>
            </g>
          </g>
        </g>
      </g>
    </g>
  </g>
</svg>