<?xml version="1.0" encoding="UTF-8"?>
<svg id="Layer_2" data-name="Layer 2" xmlns="http://www.w3.org/2000/svg" viewBox="0 0 529.87 582.73">
  <defs>
    <style>
      .cls-1 {
        opacity: .5;
      }

      .cls-2 {
        fill: #363938;
      }

      .cls-2, .cls-3 {
        fill-rule: evenodd;
      }

      .cls-2, .cls-3, .cls-4, .cls-5, .cls-6, .cls-7, .cls-8, .cls-9, .cls-10, .cls-11 {
        stroke-width: 0px;
      }

      .cls-3 {
        fill: #1a2229;
      }

      .cls-4 {
        fill: #072e53;
      }

      .cls-5 {
        fill: #41a7af;
      }

      .cls-6 {
        fill: #148ebf;
      }

      .cls-7 {
        fill: #241744;
      }

      .cls-8 {
        fill: #e0d5cf;
      }

      .cls-9 {
        fill: #fff;
      }

      .cls-10 {
        fill: #fcffff;
      }

      .cls-11 {
        fill: #66c6bf;
      }
    </style>
  </defs>
  <g id="Img">
    <g>
      <rect class="cls-4" x="3.72" width="520.2" height="579.26"/>
      <path class="cls-7" d="m7.19,483.16h154.32c-11.76-3.63-29.4-15.98-50.11-52.94-20.85-37.2-36.75-86.35-54.44-86.35-16.34,0-31.16,41.95-49.77,77.68v61.61Z"/>
      <path class="cls-7" d="m112.53,412.47c20.85-53.55,36.75-124.29,54.44-124.29s33.59,70.74,54.44,124.29c20.71,53.2,38.35,70.98,50.11,76.2H62.42c11.76-5.22,29.4-23,50.11-76.2Z"/>
      <path class="cls-6" d="m62.75,456.97c22.89-18.73,40.34-43.45,59.75-43.45s36.87,24.73,59.75,43.45c22.72,18.6,42.08,24.82,54.99,26.64H7.76c12.91-1.82,32.27-8.04,54.99-26.64Z"/>
      <path class="cls-5" d="m208.27,436.78c22.89-51.84,40.34-120.3,59.75-120.3s36.87,68.46,59.75,120.3c22.73,51.5,42.09,68.71,55,73.76h-229.49c12.9-5.05,32.27-22.26,54.99-73.76Z"/>
      <path class="cls-6" d="m333.58,436.78c22.89-51.84,40.34-120.3,59.75-120.3s36.87,68.46,59.75,120.3c22.73,51.5,42.09,68.71,55,73.76h-229.49c12.9-5.05,32.27-22.26,54.99-73.76Z"/>
      <path class="cls-9" d="m169.35,203.15c-.2-9.03-7.59-16.3-16.7-16.3-2.04,0-4,.39-5.8,1.06-2.23-3.46-6.12-5.76-10.55-5.76-1.08,0-2.11.15-3.11.4-3.31-5.44-9.3-9.09-16.15-9.09-8.98,0-16.49,6.25-18.4,14.62-1.95-.79-4.07-1.23-6.3-1.23-9.11,0-16.5,7.26-16.69,16.3h93.71Z"/>
      <path class="cls-9" d="m275.56,263.19c-.2-9.03-7.59-16.3-16.7-16.3-2.04,0-4,.39-5.8,1.06-2.23-3.46-6.12-5.76-10.55-5.76-1.08,0-2.11.15-3.11.4-3.31-5.44-9.29-9.09-16.15-9.09-8.98,0-16.49,6.25-18.4,14.62-1.95-.79-4.07-1.23-6.3-1.23-9.11,0-16.5,7.26-16.69,16.3h93.71Z"/>
      <path class="cls-9" d="m419.43,266.43c-.2-9.03-7.59-16.3-16.7-16.3-2.04,0-4,.39-5.8,1.06-2.23-3.46-6.12-5.76-10.55-5.76-1.08,0-2.11.15-3.11.4-3.31-5.44-9.29-9.09-16.15-9.09-8.98,0-16.49,6.25-18.4,14.62-1.95-.79-4.07-1.23-6.3-1.23-9.11,0-16.5,7.26-16.69,16.3h93.71Z"/>
      <g>
        <path class="cls-9" d="m211.09,113.19c0-29.28,23.61-53.02,52.73-53.02s52.74,23.74,52.74,53.02-23.61,53.02-52.74,53.02-52.73-23.74-52.73-53.02Z"/>
        <g class="cls-1">
          <path class="cls-8" d="m230.25,96.43c-1.42-3.88,3.29-9.19,10.52-11.86,7.23-2.66,14.23-1.68,15.65,2.2,1.42,3.88-3.29,9.19-10.52,11.86-7.23,2.67-14.24,1.68-15.65-2.21Z"/>
        </g>
        <g class="cls-1">
          <path class="cls-8" d="m300.81,96.34c2.01,5.59-3.3,12.56-11.85,15.57-8.55,3.01-17.11.92-19.11-4.67-2-5.59,3.3-12.56,11.85-15.57,8.55-3.01,17.1-.92,19.1,4.67Z"/>
        </g>
        <g class="cls-1">
          <path class="cls-8" d="m246.52,146.63c0-1.91,1.75-3.45,3.92-3.45s3.92,1.55,3.92,3.45-1.75,3.45-3.92,3.45-3.92-1.55-3.92-3.45Z"/>
        </g>
        <g class="cls-1">
          <path class="cls-8" d="m240.54,103.64c0-1.01.93-1.84,2.09-1.84s2.09.83,2.09,1.84-.94,1.84-2.09,1.84-2.09-.82-2.09-1.84Z"/>
        </g>
        <g class="cls-1">
          <path class="cls-8" d="m299.16,124.48c-1.05-1.56-.48-3.8,1.29-5.01,1.77-1.21,4.06-.93,5.11.62,1.06,1.56.48,3.8-1.29,5.01-1.77,1.21-4.06.93-5.11-.62Z"/>
        </g>
        <g class="cls-1">
          <path class="cls-8" d="m263.01,76.22c-1.05-1.56-.48-3.8,1.29-5.01,1.77-1.21,4.05-.93,5.11.62,1.05,1.56.48,3.8-1.29,5.01-1.77,1.21-4.06.93-5.11-.62Z"/>
        </g>
        <g class="cls-1">
          <path class="cls-8" d="m287.17,75.49c1.02,0,1.84.93,1.84,2.09s-.83,2.1-1.84,2.1-1.84-.94-1.84-2.1.83-2.09,1.84-2.09Z"/>
        </g>
      </g>
      <path class="cls-7" d="m523.92,521.79c-2.53-.54-25.87-12.91-34.32-14.52-8.45-1.61-43.1,1.61-68.45,1.08-25.35-.54-49.02-17.21-58.31-19.37-9.3-2.15-24.51,5.38-33.8,9.14-9.3,3.77-10.14,9.15-21.13,5.38-10.99-3.76-18.59.54-26.2,0-7.61-.54-12.68-1.61-21.97-5.92-9.3-4.3-45.63-17.75-61.69-19.9-16.06-2.15-43.1-12.37-60-12.91-16.9-.54-25.35,1.61-43.95,4.3-18.59,2.69-14.37-4.3-27.89-3.23-13.52,1.08-13.52,5.92-25.35,9.15-11.83,3.23-12.68,4.3-19.44,5.92-6.76,1.61-9.3-.54-9.3-.54v41.42h511.8Z"/>
      <path class="cls-11" d="m478.78,581.37c-77.2-36.09-112.7-69.22-120.24-69.66-10.2-.6-51.47,29.28-107.1,4.83-18.93-8.32-80.1-36.16-95.75-33.93-15.65,2.24-47.89,27.33-61.8,28.44-13.91,1.12-93.89-18.01-93.89-18.01v88.46l478.78-.14Z"/>
      <path class="cls-7" d="m524.4,470.98c-15.01-44.82-27.84-88.74-41.78-88.74-17.68,0-33.59,70.74-54.44,124.29-15.28,39.26-28.89,59.22-39.7,69.09v7.11h135.93v-111.75Z"/>
      <path class="cls-7" d="m322.23,527.69c27.23-38.19,48-88.63,71.1-88.63s43.87,50.44,71.1,88.63c27.05,37.93,50.08,50.61,65.44,54.33h-273.07c15.35-3.72,38.39-16.4,65.44-54.33Z"/>
      <path class="cls-3" d="m194.95,560.63c3.53.29,7.78,1.01,10.08,2.09-.65,4.97-.5,3.67-3.96,5.76-2.38-4.82-4.03-2.38-6.12-7.85Zm-14.26-101.37c-6.91,4.97,7.06,4.1-3.89,12.82l.22,3.6,3.67,1.22-2.09,4.97s-1.87,1.58-1.94,1.58l-4.32,3.6-1.37,3.02c5.11.94,2.59,1.22,8.21.14,1.37-2.45,1.66-3.1,4.54-4.1-.36,1.58-.14,1.73-1.08,3.31-2.02,3.46-.58,1.01-2.23,2.38-3.24,5.18-3.89,4.18-8.57,5.98l.86,3.89c3.38.14,5.26-.5,7.7-1.22-.79,3.31.07,1.22-1.22,3.53-1.73,3.31-3.82,3.24-8.06,4.82-.43,1.08-.86,4.68-2.59,5.83l-.14,2.81c5.76.22,7.56-2.95,12.02-3.02-2.88,1.01-4.61,4.68-6.55,6.41-3.82,3.53-6.34,2.3-6.26,9.07,4.61-.07,5.4-1.37,9.36-2.23-1.87,6.05-3.46,2.02-7.85,10.51-1.3,2.38.14.22-1.58,2.3-1.51,1.94-2.52,1.8-2.66,5.04,4.97.72,6.62-.58,11.02-1.51-2.02,3.6-2.66,3.96-6.55,6.41-2.45,1.66-4.25,1.94-3.82,5.69,6.77,1.87,7.56-.72,13.03-1.08-3.02,9.29-10.8,11.88-15.41,13.97-8.06,3.82-3.17,8.06,4.61,6.77,6.55-1.01,4.9-2.38,8.35.29-2.95,1.37-7.27,3.46-9.22,5.98,7.92.5,17.71-1.08,25.34-.29l6.91.43-3.53-4.32c7.85-.86,9.79-.22,12.67-5.98-2.88-1.87-1.37-.5-3.46-2.74l8.86-1.44c-2.52,7.27-6.34,9.58-11.81,12.46l1.73,2.02,26.5.07-2.23-4.1c4.46-.58,6.05,1.94,13.54,1.3-1.37-8.42-7.49-5.04-11.09-13.1,5.11,1.3,5.98,3.67,11.02,2.02.29-.86.58-.36.07-2.09-.94-2.95-1.44-1.22-3.31-4.75-5.54-10.51-4.97-4.18-8.35-11.02,4.75.72,5.04,2.66,9.86,2.02-.14-6.7-2.81-4.03-8.64-11.81-.79-1.08-.94-1.44-1.73-2.16-1.8-1.8-.14-.72-1.66-1.22,3.74.22,6.98,2.95,9.36,2.45,2.52-.5.36.65,2.3-.94-1.58-2.45-2.3-3.1-2.45-7.49-4.75-.14-9.79-4.82-10.94-9.5,6.05,2.52,3.96,4.39,10.08,1.94-1.8-3.17-3.74-4.39-6.77-6.26-1.37-.86-5.04-1.73-4.1-6.7l.79-1.94c5.62,3.1,2.16,5.47,8.86,4.68.29-5.18-2.09-5.47-5.33-8.64l-1.8-5.04c2.16-1.22,2.66-1.01,4.03-3.02l-2.52-4.82c-6.26-6.91,1.73-2.23-.36-8.21-.94-2.66-2.74-4.9-2.81-6.98-.22-4.82,1.94-.36.36-6.34-.65-2.66-3.6-10.3-5.33-11.45-.5,1.51-2.3,7.85-2.38,8.71-.29,2.59.86.14-.58,4.32-3.96,11.66,2.95,2.02-1.51,10.22-2.02,3.67-3.17,2.66-3.74,7.78l5.33-.36c-1.01,4.18-3.31,6.84-6.12,7.85l.07,1.3c1.58,2.16.36.94,3.31,2.45.22.07.58.22.72.29s.5.14.72.22c-2.09,4.9-9.29,5.11-4.82,8.78,2.74,2.3,2.38.22,3.67,3.24-.14.22-.5.29-.58.65l-4.68,3.89c-3.17,2.3-3.38,1.01-3.1,5.11,5.76,1.3,5.47.14,10.22-1.15-1.3,8.35-10.73,8.64-12.38,14.26,5.18,2.66,7.06,1.58,11.95-.86-.58,3.74-2.3,6.05-5.54,8.78-3.1,2.59-5.83,2.81-6.62,7.34,4.18,1.87,7.13-.72,10.73-1.8-.94,3.31-4.68,6.98-8.78,9.36-3.82-1.44-11.95-7.85-13.54-14.11,3.1.72,7.92,2.45,9.5.72,2.23-2.52.5,1.44-.58-5.4-.07-.22-.07-.58-.14-.72-.58-4.03-7.13-3.53-10.44-11.59l9.58,2.16c1.44-4.32,1.08-2.3-1.3-4.46l-4.32-4.25c-.07-.22-.29-.72-.29-.58l-1.01-1.87c-2.09-3.46-2.88-2.52-4.1-6.19,3.17,1.66,1.3,2.09,5.11,2.66,4.25-2.95,1.58-1.3,6.91-1.37-1.15-2.16-4.39-4.03-5.04-4.61-1.15-2.23-1.01-1.51-3.17-2.66-.22-.22-.43-.5-.58-.65l-2.02-3.02c-.72-1.37-1.08-2.16-1.87-3.74l6.34,1.73c3.6.65,5.18,0,4.32-3.74-3.67-1.66-5.9-3.31-7.13-6.91l-1.3-2.02,5.9-1.01c-.72-4.75-3.74-4.54-6.77-7.7l2.81-1.51c1.87-1.08.94.22,2.45-1.73-1.37-2.59.22,0-1.8-2.52-2.09-2.66-2.66-2.66-4.1-6.48,1.8-.72,2.88-.29,5.26-2.02-2.02-3.82-3.02-4.61-4.68-8.86-.86-3.1-2.3-3.1-3.96-5.11l-1.3,1.87c-3.38,6.19.94,6.05-4.9,5.54Z"/>
      <path class="cls-3" d="m40.72,558.46c3.53.29,7.78,1.01,10.08,2.09-.65,4.97-.5,3.67-3.96,5.76-2.38-4.82-4.03-2.38-6.12-7.85Zm-14.26-101.37c-6.91,4.97,7.06,4.1-3.89,12.82l.22,3.6,3.67,1.22-2.09,4.97s-1.87,1.58-1.94,1.58l-4.32,3.6-1.37,3.02c5.11.94,2.59,1.22,8.21.14,1.37-2.45,1.66-3.1,4.54-4.1-.36,1.58-.14,1.73-1.08,3.31-2.02,3.46-.58,1.01-2.23,2.38-3.24,5.18-3.89,4.18-8.57,5.98l.86,3.89c3.38.14,5.26-.5,7.7-1.22-.79,3.31.07,1.22-1.22,3.53-1.73,3.31-3.82,3.24-8.06,4.82-.43,1.08-.86,4.68-2.59,5.83l-.14,2.81c5.76.22,7.56-2.95,12.02-3.02-2.88,1.01-4.61,4.68-6.55,6.41-3.82,3.53-6.34,2.3-6.26,9.07,4.61-.07,5.4-1.37,9.36-2.23-1.87,6.05-3.46,2.02-7.85,10.51-1.3,2.38.14.22-1.58,2.3-1.51,1.94-2.52,1.8-2.66,5.04,4.97.72,6.62-.58,11.02-1.51-2.02,3.6-2.66,3.96-6.55,6.41-2.45,1.66-4.25,1.94-3.82,5.69,6.77,1.87,7.56-.72,13.03-1.08-3.02,9.29-10.8,11.88-15.41,13.97-8.06,3.82-3.17,8.06,4.61,6.77,6.55-1.01,4.9-2.38,8.35.29-2.95,1.37-7.27,3.46-9.22,5.98,7.92.5,17.71-1.08,25.34-.29l6.91.43-3.53-4.32c7.85-.86,9.79-.22,12.67-5.98-2.88-1.87-1.37-.5-3.46-2.74l8.86-1.44c-2.52,7.27-6.34,9.58-11.81,12.46l1.73,2.02,26.5.07-2.23-4.1c4.46-.58,6.05,1.94,13.54,1.3-1.37-8.42-7.49-5.04-11.09-13.1,5.11,1.3,5.98,3.67,11.02,2.02.29-.86.58-.36.07-2.09-.94-2.95-1.44-1.22-3.31-4.75-5.54-10.51-4.97-4.18-8.35-11.02,4.75.72,5.04,2.66,9.86,2.02-.14-6.7-2.81-4.03-8.64-11.81-.79-1.08-.94-1.44-1.73-2.16-1.8-1.8-.14-.72-1.66-1.22,3.74.22,6.98,2.95,9.36,2.45,2.52-.5.36.65,2.3-.94-1.58-2.45-2.3-3.1-2.45-7.49-4.75-.14-9.79-4.82-10.94-9.5,6.05,2.52,3.96,4.39,10.08,1.94-1.8-3.17-3.74-4.39-6.77-6.26-1.37-.86-5.04-1.73-4.1-6.7l.79-1.94c5.62,3.1,2.16,5.47,8.86,4.68.29-5.18-2.09-5.47-5.33-8.64l-1.8-5.04c2.16-1.22,2.66-1.01,4.03-3.02l-2.52-4.82c-6.26-6.91,1.73-2.23-.36-8.21-.94-2.66-2.74-4.9-2.81-6.98-.22-4.82,1.94-.36.36-6.34-.65-2.66-3.6-10.3-5.33-11.45-.5,1.51-2.3,7.85-2.38,8.71-.29,2.59.86.14-.58,4.32-3.96,11.66,2.95,2.02-1.51,10.22-2.02,3.67-3.17,2.66-3.74,7.78l5.33-.36c-1.01,4.18-3.31,6.84-6.12,7.85l.07,1.3c1.58,2.16.36.94,3.31,2.45.22.07.58.22.72.29s.5.14.72.22c-2.09,4.9-9.29,5.11-4.82,8.78,2.74,2.3,2.38.22,3.67,3.24-.14.22-.5.29-.58.65l-4.68,3.89c-3.17,2.3-3.38,1.01-3.1,5.11,5.76,1.3,5.47.14,10.22-1.15-1.3,8.35-10.73,8.64-12.38,14.26,5.18,2.66,7.06,1.58,11.95-.86-.58,3.74-2.3,6.05-5.54,8.78-3.1,2.59-5.83,2.81-6.62,7.34,4.18,1.87,7.13-.72,10.73-1.8-.94,3.31-4.68,6.98-8.78,9.36-3.82-1.44-11.95-7.85-13.54-14.11,3.1.72,7.92,2.45,9.5.72,2.23-2.52.5,1.44-.58-5.4-.07-.22-.07-.58-.14-.72-.58-4.03-7.13-3.53-10.44-11.59l9.58,2.16c1.44-4.32,1.08-2.3-1.3-4.46l-4.32-4.25c-.07-.22-.29-.72-.29-.58l-1.01-1.87c-2.09-3.46-2.88-2.52-4.1-6.19,3.17,1.66,1.3,2.09,5.11,2.66,4.25-2.95,1.58-1.3,6.91-1.37-1.15-2.16-4.39-4.03-5.04-4.61-1.15-2.23-1.01-1.51-3.17-2.66-.22-.22-.43-.5-.58-.65l-2.02-3.02c-.72-1.37-1.08-2.16-1.87-3.74l6.34,1.73c3.6.65,5.18,0,4.32-3.74-3.67-1.66-5.9-3.31-7.13-6.91l-1.3-2.02,5.9-1.01c-.72-4.75-3.74-4.54-6.77-7.7l2.81-1.51c1.87-1.08.94.22,2.45-1.73-1.37-2.59.22,0-1.8-2.52-2.09-2.66-2.66-2.66-4.1-6.48,1.8-.72,2.88-.29,5.26-2.02-2.02-3.82-3.02-4.61-4.68-8.86-.86-3.1-2.3-3.1-3.96-5.11l-1.3,1.87c-3.38,6.19.94,6.05-4.9,5.54Z"/>
      <path class="cls-2" d="m347.46,516.81c-1.58,5.26-3.82,10.51-4.32,17.28-.58,6.77-.43,13.54-.65,20.23-3.46-7.34-7.2-22.9-13.46-24.7,1.15,4.03,7.2,12.96,9.14,23.47-2.66-2.02-2.95-4.32-5.54-6.34-1.73,2.81,2.3,8.21,3.67,12.02,1.87,4.9,2.59,9.72,4.32,14.62-.65,4.18-.5,4.46,3.53,5.4,1.73.43,7.49.5,9.29.5l1.3-4.18c2.3-8.35,4.1-9.72,8.14-16.49,3.31-5.62,5.47-11.16,10.15-14.98,1.3-2.59,1.01-2.88,3.89-4.18-2.52-3.46.86-.79-1.66-.86-2.38,0-4.9,5.4-9.14,7.2l-8.35,14.76c-1.37,2.52-1.51,2.59-3.17,4.25.43-8.57-.07-25.34,6.7-29.52.5-2.88,1.8-4.39,3.38-6.77.14-.22,1.94-2.95,2.02-3.1,1.37-4.68,1.8-1.73-.79-3.31-1.66,3.74-5.62,7.85-7.49,12.46l-3.74,6.84-1.08-7.06-.79-4.97c-1.22,1.66-.94-1.58-1.15,3.96l.94,13.1c-.22,3.6-2.88,10.44-4.97,13.61-1.08-2.95-3.38-32.25-.43-32.76-.5-8.78,4.25-10.51,5.4-16.78-3.17,1.22-3.1,2.59-5.11,6.26Z"/>
      <g>
        <path class="cls-10" d="m435.11,117.42c0,.53-.38.96-.85.96s-.85-.43-.85-.96.38-.96.85-.96.85.43.85.96Z"/>
        <path class="cls-10" d="m109.42,227.01c0,.53-.38.96-.85.96s-.85-.43-.85-.96.38-.96.85-.96.85.43.85.96Z"/>
        <path class="cls-10" d="m122.73,178.9c0,.53-.38.96-.85.96s-.85-.43-.85-.96.38-.96.85-.96.85.43.85.96Z"/>
        <path class="cls-10" d="m12.2,248.95c0,.53-.38.96-.85.96s-.85-.43-.85-.96.38-.96.85-.96.85.43.85.96Z"/>
        <path class="cls-10" d="m41.8,290.25c0,.53-.38.96-.85.96s-.85-.43-.85-.96.38-.96.85-.96.85.43.85.96Z"/>
        <path class="cls-10" d="m425.33,56.51c0,.53-.38.96-.85.96s-.85-.43-.85-.96.38-.96.85-.96.85.43.85.96Z"/>
        <path class="cls-10" d="m515.76,80.94c0,.53-.38.96-.85.96s-.85-.43-.85-.96.38-.96.85-.96.85.43.85.96Z"/>
        <path class="cls-10" d="m484.8,166.55c0,.53-.38.96-.85.96s-.85-.43-.85-.96.38-.96.85-.96.85.43.85.96Z"/>
        <path class="cls-10" d="m523.92,21.98c0,.53-.38.96-.85.96s-.85-.43-.85-.96.38-.96.85-.96.85.43.85.96Z"/>
        <path class="cls-10" d="m519.84,239.47c0,.53-.38.96-.85.96s-.85-.43-.85-.96.38-.96.85-.96.85.43.85.96Z"/>
        <path class="cls-10" d="m376.78,62.46c0,.53-.38.96-.85.96s-.85-.43-.85-.96.38-.96.85-.96.85.43.85.96Z"/>
        <path class="cls-10" d="m328.6,58.98c0,.53-.38.96-.85.96s-.85-.43-.85-.96.38-.96.85-.96.85.43.85.96Z"/>
        <path class="cls-10" d="m329.45,108.6c0,.53-.38.96-.85.96s-.85-.43-.85-.96.38-.96.85-.96.85.43.85.96Z"/>
        <path class="cls-10" d="m264.21,143.62c0,.53-.38.96-.85.96s-.85-.43-.85-.96.38-.96.85-.96.85.43.85.96Z"/>
        <path class="cls-10" d="m273.88,75.37c0,.53-.38.96-.85.96s-.85-.43-.85-.96.38-.96.85-.96.85.43.85.96Z"/>
        <path class="cls-10" d="m222.42,103.09c0,.53-.38.96-.85.96s-.85-.43-.85-.96.38-.96.85-.96.85.43.85.96Z"/>
        <path class="cls-10" d="m184.88,68.78c0,.53-.38.96-.85.96s-.85-.43-.85-.96.38-.96.85-.96.85.43.85.96Z"/>
        <path class="cls-10" d="m141.1,21.98c0,.53-.38.96-.85.96s-.85-.43-.85-.96.38-.96.85-.96.85.43.85.96Z"/>
        <path class="cls-10" d="m179.58,177.67c0,.53-.38.96-.85.96s-.85-.43-.85-.96.38-.96.85-.96.85.43.85.96Z"/>
      </g>
    </g>
  </g>
</svg>