<?xml version="1.0" encoding="UTF-8"?>
<svg id="Layer_2" data-name="Layer 2" xmlns="http://www.w3.org/2000/svg" xmlns:xlink="http://www.w3.org/1999/xlink" viewBox="0 0 23.54 23.54">
  <defs>
    <style>
      .cls-1 {
        fill: url(#linear-gradient);
      }

      .cls-1, .cls-2, .cls-3 {
        stroke-width: 0px;
      }

      .cls-2 {
        fill: url(#linear-gradient-2);
      }

      .cls-3 {
        fill: url(#linear-gradient-3);
      }
    </style>
    <linearGradient id="linear-gradient" x1="7.34" y1="11.77" x2="16.2" y2="11.77" gradientUnits="userSpaceOnUse">
      <stop offset="0" stop-color="#41a7af"/>
      <stop offset="1" stop-color="#66c6bf"/>
    </linearGradient>
    <linearGradient id="linear-gradient-2" x1="0" y1="11.77" x2="23.54" y2="11.77" xlink:href="#linear-gradient"/>
    <linearGradient id="linear-gradient-3" x1="9.98" y1="11.77" x2="13.57" y2="11.77" xlink:href="#linear-gradient"/>
  </defs>
  <g id="Footer">
    <g>
      <path class="cls-1" d="m16,8.59c-.1-.24-.22-.43-.41-.61-.2-.2-.37-.31-.63-.41-.18-.08-.47-.16-1-.18-.57-.04-.73-.04-2.18-.04s-1.61,0-2.18.04c-.53.02-.82.1-1,.18-.24.1-.43.2-.61.41-.2.18-.31.37-.41.61-.08.18-.16.47-.18,1-.04.57-.04.74-.04,2.18s0,1.61.04,2.18c.02.53.1.82.18,1,.1.27.2.43.41.63.18.18.37.31.61.41.18.06.47.14,1,.18.57.02.73.02,2.18.02s1.61,0,2.18-.02c.53-.04.82-.12,1-.18.26-.1.43-.22.63-.41.18-.2.31-.37.41-.63.06-.18.14-.47.18-1,.02-.57.02-.73.02-2.18s0-1.61-.02-2.18c-.04-.53-.12-.82-.18-1Zm-4.23,5.96c-1.53,0-2.78-1.24-2.78-2.78s1.25-2.78,2.78-2.78,2.78,1.25,2.78,2.78-1.25,2.78-2.78,2.78Zm2.9-5.1c-.37,0-.65-.31-.65-.65,0-.37.29-.65.65-.65.35,0,.63.29.63.65,0,.35-.29.65-.63.65Z"/>
      <path class="cls-2" d="m11.77,0C5.27,0,0,5.27,0,11.77s5.27,11.77,11.77,11.77,11.77-5.27,11.77-11.77S18.27,0,11.77,0Zm5.37,14c-.02.57-.1.98-.25,1.33-.14.35-.33.65-.63.94-.29.31-.59.49-.94.63-.35.14-.76.22-1.33.24-.57.04-.76.04-2.23.04s-1.65,0-2.22-.04c-.57-.02-.96-.1-1.31-.24-.37-.14-.65-.33-.96-.63-.31-.29-.49-.59-.63-.94-.12-.35-.22-.76-.25-1.33-.02-.57-.04-.76-.04-2.22s.02-1.65.04-2.23c.02-.57.12-.96.25-1.31.14-.37.33-.65.63-.96.31-.31.59-.49.96-.63.35-.12.74-.22,1.31-.25.57-.02.76-.04,2.22-.04s1.65.02,2.23.04c.57.02.98.12,1.33.25.35.14.65.33.94.63.31.31.49.59.63.96.14.35.22.73.25,1.31.04.57.04.76.04,2.23s0,1.65-.04,2.22Z"/>
      <path class="cls-3" d="m11.77,9.98c-1,0-1.8.8-1.8,1.8s.8,1.8,1.8,1.8,1.8-.8,1.8-1.8-.8-1.8-1.8-1.8Z"/>
    </g>
  </g>
</svg>