<?xml version="1.0" encoding="UTF-8"?>
<svg id="Layer_2" data-name="Layer 2" xmlns="http://www.w3.org/2000/svg" viewBox="0 0 222.57 221.18">
  <defs>
    <style>
      .cls-1 {
        fill: #fff;
        stroke-width: 0px;
      }
    </style>
  </defs>
  <g id="icono-white">
    <g>
      <rect class="cls-1" y="202.59" width="222.57" height="18.59"/>
      <polygon class="cls-1" points="21.65 167.62 28.31 195.93 92.41 195.93 106.57 169.28 71.32 137.09 21.65 167.62"/>
      <polygon class="cls-1" points="106.57 194.82 130.99 149.86 184.55 172.34 177.61 195.93 106.57 194.82"/>
      <polygon class="cls-1" points="187.6 195.93 187.6 187.88 192.87 181.5 205.08 187.32 205.08 195.93 187.6 195.93"/>
      <polygon class="cls-1" points="164.29 149.86 184.55 157.91 193.98 143.2 181.5 129.05 171.23 129.05 164.29 149.86"/>
      <polygon class="cls-1" points="81.03 129.05 112.27 159.29 125.99 137.09 156.8 142.09 164.29 105.46 101.57 102.13 81.03 129.05"/>
      <polygon class="cls-1" points="48.29 107.68 51.06 130.71 59.39 130.71 82.7 112.67 72.71 97.69 48.29 107.68"/>
      <polygon class="cls-1" points="65.49 78.26 84.09 65.77 111.28 78.26 111.28 90.75 97.69 92.69 93.8 100.18 84.64 100.18 82.7 94.91 67.44 88.53 65.49 78.26"/>
      <polygon class="cls-1" points="84.92 48.57 90.19 59.67 112.27 51.34 106.57 31.64 88.39 42.46 84.92 48.57"/>
      <polygon class="cls-1" points="152.91 84.92 141.53 82.98 138.2 93.52 138.2 94.91 154.02 94.91 152.91 84.92"/>
      <polygon class="cls-1" points="112.27 69.1 119.33 87.7 133.76 87.7 138.2 74.1 152.63 72.99 147.36 59.67 107.95 57.45 106.57 68.27 112.27 69.1"/>
      <polygon class="cls-1" points="111.28 30.25 119.61 45.65 131.54 51.06 143.48 43.57 136.26 20.26 115.17 21.37 111.28 30.25"/>
      <polygon class="cls-1" points="95.64 23.31 106.57 23.31 111.28 14.15 125.99 14.15 129.6 10.55 119.89 0 106.57 0 95.64 23.31"/>
    </g>
  </g>
</svg>