<?xml version="1.0" encoding="UTF-8"?>
<svg id="Layer_2" data-name="Layer 2" xmlns="http://www.w3.org/2000/svg" viewBox="0 0 655.25 306.36">
  <defs>
    <style>
      .cls-1 {
        opacity: .6;
      }

      .cls-2 {
        fill: #fcffff;
        stroke-width: 0px;
      }
    </style>
  </defs>
  <g id="Footer">
    <g id="Stars" class="cls-1">
      <path class="cls-2" d="m541.9,109.3c0,.6-.49,1.09-1.09,1.09s-1.08-.49-1.08-1.09.49-1.08,1.08-1.08,1.09.49,1.09,1.08Z"/>
      <path class="cls-2" d="m126.25,233.56c0,.6-.49,1.09-1.08,1.09s-1.09-.49-1.09-1.09.49-1.09,1.09-1.09,1.08.49,1.08,1.09Z"/>
      <path class="cls-2" d="m143.24,179.01c0,.6-.49,1.09-1.09,1.09s-1.09-.49-1.09-1.09.49-1.08,1.09-1.08,1.09.49,1.09,1.08Z"/>
      <path class="cls-2" d="m2.17,258.44c0,.6-.49,1.09-1.09,1.09s-1.09-.49-1.09-1.09.49-1.08,1.09-1.08,1.09.49,1.09,1.08Z"/>
      <path class="cls-2" d="m39.95,305.27c0,.6-.49,1.09-1.09,1.09s-1.08-.49-1.08-1.09.49-1.08,1.08-1.08,1.09.49,1.09,1.08Z"/>
      <path class="cls-2" d="m529.42,40.23c0,.6-.49,1.09-1.09,1.09s-1.09-.49-1.09-1.09.49-1.08,1.09-1.08,1.09.49,1.09,1.08Z"/>
      <path class="cls-2" d="m644.83,67.94c0,.6-.49,1.09-1.08,1.09s-1.09-.49-1.09-1.09.49-1.08,1.09-1.08,1.08.49,1.08,1.08Z"/>
      <path class="cls-2" d="m605.32,165.01c0,.6-.49,1.09-1.08,1.09s-1.09-.49-1.09-1.09.49-1.08,1.09-1.08,1.08.49,1.08,1.08Z"/>
      <path class="cls-2" d="m655.25,1.08c0,.6-.49,1.09-1.08,1.09s-1.09-.49-1.09-1.09.49-1.08,1.09-1.08,1.08.49,1.08,1.08Z"/>
      <path class="cls-2" d="m650.04,247.69c0,.6-.49,1.09-1.09,1.09s-1.08-.49-1.08-1.09.49-1.08,1.08-1.08,1.09.49,1.09,1.08Z"/>
      <path class="cls-2" d="m467.46,46.98c0,.6-.49,1.09-1.09,1.09s-1.08-.49-1.08-1.09.49-1.08,1.08-1.08,1.09.49,1.09,1.08Z"/>
      <path class="cls-2" d="m405.97,43.04c0,.6-.49,1.09-1.08,1.09s-1.09-.49-1.09-1.09.49-1.08,1.09-1.08,1.08.49,1.08,1.08Z"/>
      <path class="cls-2" d="m407.06,99.3c0,.6-.49,1.09-1.09,1.09s-1.08-.49-1.08-1.09.49-1.08,1.08-1.08,1.09.49,1.09,1.08Z"/>
      <path class="cls-2" d="m323.8,139.01c0,.6-.49,1.09-1.08,1.09s-1.09-.49-1.09-1.09.49-1.08,1.09-1.08,1.08.49,1.08,1.08Z"/>
      <path class="cls-2" d="m336.14,61.62c0,.6-.49,1.09-1.09,1.09s-1.08-.49-1.08-1.09.49-1.08,1.08-1.08,1.09.49,1.09,1.08Z"/>
      <path class="cls-2" d="m270.46,93.05c0,.6-.49,1.09-1.08,1.09s-1.09-.49-1.09-1.09.49-1.08,1.09-1.08,1.08.49,1.08,1.08Z"/>
      <path class="cls-2" d="m222.56,54.14c0,.6-.49,1.09-1.09,1.09s-1.08-.49-1.08-1.09.49-1.08,1.08-1.08,1.09.49,1.09,1.08Z"/>
      <path class="cls-2" d="m166.68,1.08c0,.6-.49,1.09-1.09,1.09s-1.08-.49-1.08-1.09.49-1.08,1.08-1.08,1.09.49,1.09,1.08Z"/>
      <path class="cls-2" d="m215.79,177.62c0,.6-.49,1.09-1.09,1.09s-1.08-.49-1.08-1.09.49-1.08,1.08-1.08,1.09.49,1.09,1.08Z"/>
    </g>
  </g>
</svg>