<?xml version="1.0" encoding="UTF-8"?>
<svg id="Layer_2" data-name="Layer 2" xmlns="http://www.w3.org/2000/svg" viewBox="0 0 70.55 111.27">
  <defs>
    <style>
      .cls-1 {
        fill: #1a2229;
        fill-rule: evenodd;
        stroke-width: 0px;
      }
    </style>
  </defs>
  <g id="Footer">
    <path class="cls-1" d="m30.69,92.84c3.01.25,6.64.86,8.6,1.78-.55,4.24-.43,3.13-3.38,4.92-2.03-4.12-3.44-2.03-5.22-6.7ZM18.52,6.33c-5.9,4.24,6.02,3.5-3.32,10.94l.18,3.07,3.13,1.04-1.78,4.24s-1.6,1.35-1.66,1.35l-3.69,3.07-1.17,2.58c4.36.8,2.21,1.04,7,.12,1.17-2.09,1.41-2.64,3.87-3.5-.31,1.35-.12,1.47-.92,2.83-1.72,2.95-.49.86-1.9,2.03-2.76,4.42-3.32,3.56-7.31,5.1l.74,3.32c2.89.12,4.49-.43,6.57-1.04-.68,2.83.06,1.04-1.04,3.01-1.47,2.83-3.26,2.76-6.88,4.12-.37.92-.74,3.99-2.21,4.98l-.12,2.4c4.92.18,6.45-2.52,10.26-2.58-2.46.86-3.93,3.99-5.59,5.47-3.26,3.01-5.41,1.97-5.35,7.74,3.93-.06,4.61-1.17,7.99-1.9-1.6,5.16-2.95,1.72-6.7,8.97-1.11,2.03.12.18-1.35,1.97-1.29,1.66-2.15,1.54-2.27,4.3,4.24.61,5.65-.49,9.4-1.29-1.72,3.07-2.27,3.38-5.59,5.47-2.09,1.41-3.62,1.66-3.26,4.85,5.78,1.6,6.45-.61,11.12-.92-2.58,7.93-9.22,10.14-13.15,11.92-6.88,3.26-2.7,6.88,3.93,5.78,5.59-.86,4.18-2.03,7.13.25-2.52,1.17-6.21,2.95-7.86,5.1,6.76.43,15.11-.92,21.63-.25l5.9.37-3.01-3.69c6.7-.74,8.36-.18,10.81-5.1-2.46-1.6-1.17-.43-2.95-2.33l7.56-1.23c-2.15,6.21-5.41,8.17-10.08,10.63l1.47,1.72,22.61.06-1.9-3.5c3.81-.49,5.16,1.66,11.55,1.11-1.17-7.19-6.39-4.3-9.46-11.18,4.36,1.11,5.1,3.13,9.4,1.72.25-.74.49-.31.06-1.78-.8-2.52-1.23-1.04-2.83-4.06-4.73-8.97-4.24-3.56-7.13-9.4,4.06.61,4.3,2.27,8.42,1.72-.12-5.71-2.4-3.44-7.37-10.08-.68-.92-.8-1.23-1.47-1.84-1.54-1.54-.12-.61-1.41-1.04,3.19.18,5.96,2.52,7.99,2.09,2.15-.43.31.55,1.97-.8-1.35-2.09-1.97-2.64-2.09-6.39-4.06-.12-8.36-4.12-9.34-8.11,5.16,2.15,3.38,3.75,8.6,1.66-1.54-2.7-3.19-3.75-5.78-5.35-1.17-.74-4.3-1.47-3.5-5.71l.68-1.66c4.79,2.64,1.84,4.67,7.56,3.99.25-4.42-1.78-4.67-4.55-7.37l-1.54-4.3c1.84-1.04,2.27-.86,3.44-2.58l-2.15-4.12c-5.35-5.9,1.47-1.9-.31-7-.8-2.27-2.33-4.18-2.4-5.96-.18-4.12,1.66-.31.31-5.41-.55-2.27-3.07-8.79-4.55-9.77-.43,1.29-1.97,6.7-2.03,7.43-.25,2.21.74.12-.49,3.69-3.38,9.95,2.52,1.72-1.29,8.72-1.72,3.13-2.7,2.27-3.19,6.64l4.55-.31c-.86,3.56-2.83,5.84-5.22,6.7l.06,1.11c1.35,1.84.31.8,2.83,2.09.18.06.49.18.61.25s.43.12.61.18c-1.78,4.18-7.93,4.36-4.12,7.5,2.33,1.97,2.03.18,3.13,2.76-.12.18-.43.25-.49.55l-3.99,3.32c-2.7,1.97-2.89.86-2.64,4.36,4.92,1.11,4.67.12,8.72-.98-1.11,7.13-9.15,7.37-10.57,12.17,4.42,2.27,6.02,1.35,10.2-.74-.49,3.19-1.97,5.16-4.73,7.5-2.64,2.21-4.98,2.4-5.65,6.27,3.56,1.6,6.08-.61,9.15-1.54-.8,2.83-3.99,5.96-7.5,7.99-3.26-1.23-10.2-6.7-11.55-12.04,2.64.61,6.76,2.09,8.11.61,1.9-2.15.43,1.23-.49-4.61-.06-.18-.06-.49-.12-.61-.49-3.44-6.08-3.01-8.91-9.89l8.17,1.84c1.23-3.69.92-1.97-1.11-3.81l-3.69-3.62c-.06-.18-.25-.61-.25-.49l-.86-1.6c-1.78-2.95-2.46-2.15-3.5-5.28,2.7,1.41,1.11,1.78,4.36,2.27,3.62-2.52,1.35-1.11,5.9-1.17-.98-1.84-3.75-3.44-4.3-3.93-.98-1.9-.86-1.29-2.7-2.27-.18-.18-.37-.43-.49-.55l-1.72-2.58c-.61-1.17-.92-1.84-1.6-3.19l5.41,1.47c3.07.55,4.42,0,3.69-3.19-3.13-1.41-5.04-2.83-6.08-5.9l-1.11-1.72,5.04-.86c-.61-4.06-3.19-3.87-5.78-6.57l2.4-1.29c1.6-.92.8.18,2.09-1.47-1.17-2.21.18,0-1.54-2.15-1.78-2.27-2.27-2.27-3.5-5.53,1.54-.61,2.46-.25,4.49-1.72-1.72-3.26-2.58-3.93-3.99-7.56-.74-2.64-1.97-2.64-3.38-4.36l-1.11,1.6c-2.89,5.28.8,5.16-4.18,4.73Z"/>
  </g>
</svg>