<?xml version="1.0" encoding="UTF-8"?>
<svg id="Layer_2" data-name="Layer 2" xmlns="http://www.w3.org/2000/svg" xmlns:xlink="http://www.w3.org/1999/xlink" viewBox="0 0 23.54 23.54">
  <defs>
    <style>
      .cls-1 {
        fill: url(#linear-gradient);
      }

      .cls-1, .cls-2 {
        stroke-width: 0px;
      }

      .cls-2 {
        fill: url(#linear-gradient-2);
      }
    </style>
    <linearGradient id="linear-gradient" x1="7.55" y1="11.63" x2="16.19" y2="11.63" gradientUnits="userSpaceOnUse">
      <stop offset="0" stop-color="#41a7af"/>
      <stop offset="1" stop-color="#66c6bf"/>
    </linearGradient>
    <linearGradient id="linear-gradient-2" x1="0" y1="11.77" x2="23.54" y2="11.77" xlink:href="#linear-gradient"/>
  </defs>
  <g id="Footer">
    <g>
      <path class="cls-1" d="m11.86,7.34c-2.24,0-4.08,1.7-4.29,3.88-.02.14-.02.28-.02.42,0,.95.3,1.82.81,2.53l-.53,1.58,1.66-.53c.69.45,1.5.71,2.37.71,2.39,0,4.33-1.92,4.33-4.29,0-.1,0-.22-.02-.34-.16-2.2-2.04-3.96-4.31-3.96Zm2.53,6.16c-.1.29-.62.58-.85.59-.23.02-.23.19-1.52-.31-1.28-.5-2.09-1.81-2.15-1.89-.05-.06-.32-.43-.45-.87-.04-.14-.06-.28-.06-.43,0-.62.32-.92.44-1.05.11-.12.25-.16.34-.16s.17.01.24.01.18-.04.28.21c.11.25.36.87.39.93.03.06.05.13.01.22-.03.06-.05.1-.08.15-.01.02-.03.04-.05.06-.07.07-.13.16-.19.22-.06.06-.13.13-.06.26.07.13.33.53.7.86.48.43.89.56,1.01.62.13.06.2.05.27-.03.07-.08.32-.36.4-.49.08-.13.17-.11.28-.06.12.04.74.34.86.41.13.06.21.09.24.14.03.05.03.3-.07.59Z"/>
      <path class="cls-2" d="m11.77,0C5.27,0,0,5.27,0,11.77s5.27,11.77,11.77,11.77,11.77-5.27,11.77-11.77S18.27,0,11.77,0Zm5.23,11.63c0,2.83-2.3,5.1-5.14,5.1-.89,0-1.74-.22-2.47-.63l-2.85.91.93-2.73c-.48-.77-.75-1.68-.75-2.65,0-.06.02-.14.02-.22.12-2.71,2.37-4.89,5.12-4.89s5.08,2.22,5.14,4.99v.12Z"/>
    </g>
  </g>
</svg>